solid Exported from Blender-2.79 (sub 0)
facet normal 0.000000 0.000000 -1.000000
outer loop
vertex 1.499999 -0.500000 0.000000
vertex -1.499999 -0.500000 0.000000
vertex -1.499999 0.500000 0.000000
endloop
endfacet
facet normal 0.000000 0.000000 -1.000000
outer loop
vertex -1.499999 0.500000 0.000000
vertex 1.500000 0.500000 0.000000
vertex 1.499999 -0.500000 0.000000
endloop
endfacet
facet normal -0.000000 0.000000 1.000000
outer loop
vertex 1.499998 -0.500000 2.000000
vertex 1.499999 0.500000 2.000000
vertex 1.200000 0.500000 2.000000
endloop
endfacet
facet normal 0.000000 0.000000 1.000000
outer loop
vertex 1.200000 0.500000 2.000000
vertex 1.200000 -0.500000 2.000000
vertex 1.499998 -0.500000 2.000000
endloop
endfacet
facet normal -0.000000 -1.000000 -0.000000
outer loop
vertex 1.499999 -0.500000 0.000000
vertex 1.499998 -0.500000 2.000000
vertex 1.200000 -0.500000 2.000000
endloop
endfacet
facet normal -0.000000 -1.000000 -0.000000
outer loop
vertex 1.499999 -0.500000 0.000000
vertex 1.200000 -0.500000 2.000000
vertex 1.200000 -0.500000 0.200000
endloop
endfacet
facet normal -0.000000 -1.000000 0.000000
outer loop
vertex -1.200000 -0.499999 2.000000
vertex -1.500000 -0.499999 2.000000
vertex -1.499999 -0.500000 0.000000
endloop
endfacet
facet normal 0.000000 -1.000000 0.000000
outer loop
vertex 1.499999 -0.500000 0.000000
vertex 1.200000 -0.500000 0.200000
vertex -1.200000 -0.500000 0.200000
endloop
endfacet
facet normal -0.000000 -1.000000 0.000000
outer loop
vertex -1.200000 -0.500000 0.200000
vertex -1.200000 -0.499999 2.000000
vertex -1.499999 -0.500000 0.000000
endloop
endfacet
facet normal 0.000000 -1.000000 0.000000
outer loop
vertex 1.499999 -0.500000 0.000000
vertex -1.200000 -0.500000 0.200000
vertex -1.499999 -0.500000 0.000000
endloop
endfacet
facet normal -1.000000 0.000001 -0.000000
outer loop
vertex -1.499999 -0.500000 0.000000
vertex -1.500000 -0.499999 2.000000
vertex -1.499999 0.500000 2.000000
endloop
endfacet
facet normal -1.000000 0.000000 0.000000
outer loop
vertex -1.499999 0.500000 2.000000
vertex -1.499999 0.500000 0.000000
vertex -1.499999 -0.500000 0.000000
endloop
endfacet
facet normal 0.000000 1.000000 -0.000000
outer loop
vertex -1.499999 0.500000 0.000000
vertex -1.499999 0.500000 2.000000
vertex -1.200000 0.500000 2.000000
endloop
endfacet
facet normal 0.000000 1.000000 -0.000000
outer loop
vertex -1.499999 0.500000 0.000000
vertex -1.200000 0.500000 2.000000
vertex -1.200000 0.500000 0.200000
endloop
endfacet
facet normal 0.000000 1.000000 -0.000000
outer loop
vertex 1.200000 0.500000 2.000000
vertex 1.499999 0.500000 2.000000
vertex 1.500000 0.500000 0.000000
endloop
endfacet
facet normal 0.000000 1.000000 -0.000000
outer loop
vertex -1.499999 0.500000 0.000000
vertex -1.200000 0.500000 0.200000
vertex 1.200000 0.500000 0.200000
endloop
endfacet
facet normal 0.000000 1.000000 -0.000000
outer loop
vertex 1.200000 0.500000 0.200000
vertex 1.200000 0.500000 2.000000
vertex 1.500000 0.500000 0.000000
endloop
endfacet
facet normal 0.000000 1.000000 0.000000
outer loop
vertex -1.499999 0.500000 0.000000
vertex 1.200000 0.500000 0.200000
vertex 1.500000 0.500000 0.000000
endloop
endfacet
facet normal 1.000000 -0.000000 0.000000
outer loop
vertex 1.499998 -0.500000 2.000000
vertex 1.499999 -0.500000 0.000000
vertex 1.500000 0.500000 0.000000
endloop
endfacet
facet normal 1.000000 -0.000001 0.000000
outer loop
vertex 1.500000 0.500000 0.000000
vertex 1.499999 0.500000 2.000000
vertex 1.499998 -0.500000 2.000000
endloop
endfacet
facet normal -1.000000 0.000000 0.000000
outer loop
vertex 1.200000 0.500000 0.200000
vertex 1.200000 -0.500000 0.200000
vertex 1.200000 -0.500000 2.000000
endloop
endfacet
facet normal -1.000000 0.000000 0.000000
outer loop
vertex 1.200000 -0.500000 2.000000
vertex 1.200000 0.500000 2.000000
vertex 1.200000 0.500000 0.200000
endloop
endfacet
facet normal -0.000001 0.000000 1.000000
outer loop
vertex -1.200000 -0.499999 2.000000
vertex -1.200000 0.500000 2.000000
vertex -1.499999 0.500000 2.000000
endloop
endfacet
facet normal 0.000001 0.000000 1.000000
outer loop
vertex -1.499999 0.500000 2.000000
vertex -1.500000 -0.499999 2.000000
vertex -1.200000 -0.499999 2.000000
endloop
endfacet
facet normal 0.000000 0.000000 1.000000
outer loop
vertex -1.200000 0.500000 0.200000
vertex -1.200000 -0.500000 0.200000
vertex 1.200000 -0.500000 0.200000
endloop
endfacet
facet normal -0.000000 0.000000 1.000000
outer loop
vertex 1.200000 -0.500000 0.200000
vertex 1.200000 0.500000 0.200000
vertex -1.200000 0.500000 0.200000
endloop
endfacet
facet normal 1.000000 0.000000 0.000000
outer loop
vertex -1.200000 -0.500000 0.200000
vertex -1.200000 0.500000 0.200000
vertex -1.200000 0.500000 2.000000
endloop
endfacet
facet normal 1.000000 -0.000000 0.000000
outer loop
vertex -1.200000 0.500000 2.000000
vertex -1.200000 -0.499999 2.000000
vertex -1.200000 -0.500000 0.200000
endloop
endfacet
endsolid Exported from Blender-2.79 (sub 0)
