solid Exported from Blender-2.79 (sub 0)
facet normal 0.000000 0.000000 -1.000000
outer loop
vertex -0.025000 0.500000 0.000000
vertex 0.000000 0.500000 0.000000
vertex -0.025000 0.497538 0.000000
endloop
endfacet
facet normal 0.000000 0.894427 -0.447214
outer loop
vertex 0.025000 0.800000 0.600000
vertex 0.025000 0.500000 0.000000
vertex 0.000000 0.500000 0.000000
endloop
endfacet
facet normal 0.000000 0.894427 -0.447214
outer loop
vertex 0.000000 0.500000 0.000000
vertex -0.025000 0.500000 0.000000
vertex -0.025000 0.800000 0.600000
endloop
endfacet
facet normal 0.000000 0.894427 -0.447214
outer loop
vertex 0.000000 0.500000 0.000000
vertex -0.025000 0.800000 0.600000
vertex 0.025000 0.800000 0.600000
endloop
endfacet
facet normal 0.000000 -0.894427 0.447214
outer loop
vertex 0.025000 -0.500000 2.000000
vertex -0.025000 -0.500000 2.000000
vertex -0.025000 -0.800000 1.400000
endloop
endfacet
facet normal 0.000000 -0.894427 0.447214
outer loop
vertex -0.025000 -0.800000 1.400000
vertex 0.025000 -0.800000 1.400000
vertex 0.025000 -0.500000 2.000000
endloop
endfacet
facet normal 0.000000 0.000000 1.000000
outer loop
vertex -0.025000 0.500000 2.000000
vertex -0.025000 -0.500000 2.000000
vertex 0.025000 -0.500000 2.000000
endloop
endfacet
facet normal 0.000000 0.000000 1.000000
outer loop
vertex 0.025000 -0.500000 2.000000
vertex 0.025000 0.500000 2.000000
vertex -0.025000 0.500000 2.000000
endloop
endfacet
facet normal -1.000000 0.000000 -0.000000
outer loop
vertex -0.025000 -0.800000 1.400000
vertex -0.025000 -0.500000 2.000000
vertex -0.025000 0.500000 2.000000
endloop
endfacet
facet normal -1.000000 0.000000 -0.000000
outer loop
vertex -0.025000 0.500000 2.000000
vertex -0.025000 0.800000 1.400000
vertex -0.025000 0.800000 0.600000
endloop
endfacet
facet normal -1.000000 0.000000 -0.000000
outer loop
vertex -0.025000 0.800000 0.600000
vertex -0.025000 0.500000 0.000000
vertex -0.025000 0.497538 0.000000
endloop
endfacet
facet normal -1.000000 0.000000 -0.000000
outer loop
vertex -0.025000 0.800000 0.600000
vertex -0.025000 0.497538 0.000000
vertex -0.025000 0.497538 0.100000
endloop
endfacet
facet normal -1.000000 -0.000000 -0.000000
outer loop
vertex -0.025000 -0.800000 1.400000
vertex -0.025000 0.500000 2.000000
vertex -0.025000 0.800000 0.600000
endloop
endfacet
facet normal -1.000000 0.000000 -0.000000
outer loop
vertex -0.025000 -0.500000 0.000000
vertex -0.025000 -0.800000 0.600000
vertex -0.025000 -0.800000 1.400000
endloop
endfacet
facet normal -1.000000 0.000000 -0.000000
outer loop
vertex -0.025000 -0.497538 0.100000
vertex -0.025000 -0.497538 0.000000
vertex -0.025000 -0.500000 0.000000
endloop
endfacet
facet normal -1.000000 0.000000 -0.000000
outer loop
vertex -0.025000 0.800000 0.600000
vertex -0.025000 0.497538 0.100000
vertex -0.025000 -0.497538 0.100000
endloop
endfacet
facet normal -1.000000 -0.000000 -0.000000
outer loop
vertex -0.025000 -0.497538 0.100000
vertex -0.025000 -0.500000 0.000000
vertex -0.025000 -0.800000 1.400000
endloop
endfacet
facet normal -1.000000 0.000000 -0.000000
outer loop
vertex -0.025000 0.800000 0.600000
vertex -0.025000 -0.497538 0.100000
vertex -0.025000 -0.800000 1.400000
endloop
endfacet
facet normal 0.000000 -1.000000 -0.000000
outer loop
vertex -0.025000 -0.800000 0.600000
vertex 0.025000 -0.800000 0.600000
vertex 0.025000 -0.800000 1.400000
endloop
endfacet
facet normal 0.000000 -1.000000 0.000000
outer loop
vertex 0.025000 -0.800000 1.400000
vertex -0.025000 -0.800000 1.400000
vertex -0.025000 -0.800000 0.600000
endloop
endfacet
facet normal 0.000000 -0.894427 -0.447214
outer loop
vertex 0.025000 -0.500000 0.000000
vertex 0.025000 -0.800000 0.600000
vertex -0.025000 -0.800000 0.600000
endloop
endfacet
facet normal 0.000000 -0.894427 -0.447214
outer loop
vertex -0.025000 -0.800000 0.600000
vertex -0.025000 -0.500000 0.000000
vertex 0.000000 -0.500000 0.000000
endloop
endfacet
facet normal 0.000000 -0.894427 -0.447214
outer loop
vertex -0.025000 -0.800000 0.600000
vertex 0.000000 -0.500000 0.000000
vertex 0.025000 -0.500000 0.000000
endloop
endfacet
facet normal 0.000000 1.000000 -0.000000
outer loop
vertex -0.025000 0.800000 1.400000
vertex 0.025000 0.800000 1.400000
vertex 0.025000 0.800000 0.600000
endloop
endfacet
facet normal 0.000000 1.000000 0.000000
outer loop
vertex 0.025000 0.800000 0.600000
vertex -0.025000 0.800000 0.600000
vertex -0.025000 0.800000 1.400000
endloop
endfacet
facet normal 1.000000 0.000000 0.000000
outer loop
vertex 0.025000 0.500000 0.000000
vertex 0.025000 0.800000 0.600000
vertex 0.025000 0.800000 1.400000
endloop
endfacet
facet normal 1.000000 0.000000 0.000000
outer loop
vertex 0.025000 0.800000 1.400000
vertex 0.025000 0.500000 2.000000
vertex 0.025000 -0.500000 2.000000
endloop
endfacet
facet normal 1.000000 0.000000 0.000000
outer loop
vertex 0.025000 -0.500000 2.000000
vertex 0.025000 -0.800000 1.400000
vertex 0.025000 -0.800000 0.600000
endloop
endfacet
facet normal 1.000000 0.000000 0.000000
outer loop
vertex 0.025000 -0.800000 0.600000
vertex 0.025000 -0.500000 0.000000
vertex 0.025000 -0.497538 0.000000
endloop
endfacet
facet normal 1.000000 0.000000 0.000000
outer loop
vertex 0.025000 -0.800000 0.600000
vertex 0.025000 -0.497538 0.000000
vertex 0.025000 -0.497538 0.100000
endloop
endfacet
facet normal 1.000000 0.000000 0.000000
outer loop
vertex 0.025000 0.800000 1.400000
vertex 0.025000 -0.500000 2.000000
vertex 0.025000 -0.800000 0.600000
endloop
endfacet
facet normal 1.000000 0.000000 0.000000
outer loop
vertex 0.025000 0.497538 0.000000
vertex 0.025000 0.500000 0.000000
vertex 0.025000 0.800000 1.400000
endloop
endfacet
facet normal 1.000000 -0.000000 0.000000
outer loop
vertex 0.025000 -0.800000 0.600000
vertex 0.025000 -0.497538 0.100000
vertex 0.025000 0.497538 0.100000
endloop
endfacet
facet normal 1.000000 -0.000000 0.000000
outer loop
vertex 0.025000 0.497538 0.100000
vertex 0.025000 0.497538 0.000000
vertex 0.025000 0.800000 1.400000
endloop
endfacet
facet normal 1.000000 0.000000 0.000000
outer loop
vertex 0.025000 0.800000 1.400000
vertex 0.025000 -0.800000 0.600000
vertex 0.025000 0.497538 0.100000
endloop
endfacet
facet normal 0.000000 0.894427 0.447214
outer loop
vertex 0.025000 0.800000 1.400000
vertex -0.025000 0.800000 1.400000
vertex -0.025000 0.500000 2.000000
endloop
endfacet
facet normal 0.000000 0.894427 0.447214
outer loop
vertex -0.025000 0.500000 2.000000
vertex 0.025000 0.500000 2.000000
vertex 0.025000 0.800000 1.400000
endloop
endfacet
facet normal 0.995185 -0.098017 0.000000
outer loop
vertex 0.500000 0.000000 -0.100000
vertex 0.500000 0.000000 0.100000
vertex 0.490393 -0.097545 0.100000
endloop
endfacet
facet normal 0.995185 -0.098017 0.000000
outer loop
vertex 0.490393 -0.097545 0.100000
vertex 0.490393 -0.097545 -0.100000
vertex 0.500000 0.000000 -0.100000
endloop
endfacet
facet normal 0.956940 -0.290285 0.000000
outer loop
vertex 0.490393 -0.097545 -0.100000
vertex 0.490393 -0.097545 0.100000
vertex 0.461940 -0.191342 0.100000
endloop
endfacet
facet normal 0.956940 -0.290285 0.000000
outer loop
vertex 0.461940 -0.191342 0.100000
vertex 0.461940 -0.191342 -0.100000
vertex 0.490393 -0.097545 -0.100000
endloop
endfacet
facet normal 0.881921 -0.471396 0.000000
outer loop
vertex 0.461940 -0.191342 -0.100000
vertex 0.461940 -0.191342 0.100000
vertex 0.415735 -0.277785 0.100000
endloop
endfacet
facet normal 0.881921 -0.471397 0.000000
outer loop
vertex 0.415735 -0.277785 0.100000
vertex 0.415735 -0.277785 -0.100000
vertex 0.461940 -0.191342 -0.100000
endloop
endfacet
facet normal 0.773010 -0.634393 0.000000
outer loop
vertex 0.415735 -0.277785 -0.100000
vertex 0.415735 -0.277785 0.100000
vertex 0.353553 -0.353553 0.100000
endloop
endfacet
facet normal 0.773011 -0.634393 0.000000
outer loop
vertex 0.353553 -0.353553 0.100000
vertex 0.353553 -0.353553 -0.100000
vertex 0.415735 -0.277785 -0.100000
endloop
endfacet
facet normal 0.634393 -0.773010 0.000000
outer loop
vertex 0.353553 -0.353553 -0.100000
vertex 0.353553 -0.353553 0.100000
vertex 0.277785 -0.415735 0.100000
endloop
endfacet
facet normal 0.634393 -0.773010 0.000000
outer loop
vertex 0.277785 -0.415735 0.100000
vertex 0.277785 -0.415735 -0.100000
vertex 0.353553 -0.353553 -0.100000
endloop
endfacet
facet normal 0.471396 -0.881921 0.000000
outer loop
vertex 0.277785 -0.415735 -0.100000
vertex 0.277785 -0.415735 0.100000
vertex 0.191342 -0.461940 0.100000
endloop
endfacet
facet normal 0.471396 -0.881921 0.000000
outer loop
vertex 0.191342 -0.461940 0.100000
vertex 0.191342 -0.461940 -0.100000
vertex 0.277785 -0.415735 -0.100000
endloop
endfacet
facet normal 0.290285 -0.956940 0.000000
outer loop
vertex 0.191342 -0.461940 -0.100000
vertex 0.191342 -0.461940 0.100000
vertex 0.097545 -0.490393 0.100000
endloop
endfacet
facet normal 0.290285 -0.956940 0.000000
outer loop
vertex 0.097545 -0.490393 0.100000
vertex 0.097545 -0.490393 -0.100000
vertex 0.191342 -0.461940 -0.100000
endloop
endfacet
facet normal 0.098017 -0.995185 0.000000
outer loop
vertex 0.000000 -0.500000 -0.100000
vertex 0.097545 -0.490393 -0.100000
vertex 0.097545 -0.490393 0.100000
endloop
endfacet
facet normal 0.098018 -0.995185 0.000000
outer loop
vertex 0.097545 -0.490393 0.100000
vertex 0.025000 -0.497538 0.100000
vertex 0.025000 -0.497538 0.000000
endloop
endfacet
facet normal 0.098016 -0.995185 0.000000
outer loop
vertex 0.025000 -0.497538 0.000000
vertex 0.000000 -0.500000 0.000000
vertex 0.000000 -0.500000 -0.100000
endloop
endfacet
facet normal 0.098018 -0.995185 -0.000002
outer loop
vertex 0.097545 -0.490393 0.100000
vertex 0.025000 -0.497538 0.000000
vertex 0.000000 -0.500000 -0.100000
endloop
endfacet
facet normal -0.098017 -0.995185 -0.000000
outer loop
vertex -0.097545 -0.490393 -0.100000
vertex 0.000000 -0.500000 -0.100000
vertex 0.000000 -0.500000 0.000000
endloop
endfacet
facet normal -0.098017 -0.995185 -0.000001
outer loop
vertex -0.025000 -0.497538 0.000000
vertex -0.025000 -0.497538 0.100000
vertex -0.097545 -0.490393 0.100000
endloop
endfacet
facet normal -0.098016 -0.995185 0.000001
outer loop
vertex -0.097545 -0.490393 -0.100000
vertex 0.000000 -0.500000 0.000000
vertex -0.025000 -0.497538 0.000000
endloop
endfacet
facet normal -0.098017 -0.995185 0.000000
outer loop
vertex -0.025000 -0.497538 0.000000
vertex -0.097545 -0.490393 0.100000
vertex -0.097545 -0.490393 -0.100000
endloop
endfacet
facet normal -0.290285 -0.956940 0.000000
outer loop
vertex -0.097545 -0.490393 -0.100000
vertex -0.097545 -0.490393 0.100000
vertex -0.191342 -0.461940 0.100000
endloop
endfacet
facet normal -0.290285 -0.956940 0.000000
outer loop
vertex -0.191342 -0.461940 0.100000
vertex -0.191342 -0.461940 -0.100000
vertex -0.097545 -0.490393 -0.100000
endloop
endfacet
facet normal -0.471396 -0.881921 0.000000
outer loop
vertex -0.191342 -0.461940 -0.100000
vertex -0.191342 -0.461940 0.100000
vertex -0.277785 -0.415735 0.100000
endloop
endfacet
facet normal -0.471396 -0.881921 0.000000
outer loop
vertex -0.277785 -0.415735 0.100000
vertex -0.277785 -0.415735 -0.100000
vertex -0.191342 -0.461940 -0.100000
endloop
endfacet
facet normal -0.634393 -0.773010 0.000000
outer loop
vertex -0.277785 -0.415735 -0.100000
vertex -0.277785 -0.415735 0.100000
vertex -0.353553 -0.353553 0.100000
endloop
endfacet
facet normal -0.634393 -0.773010 0.000000
outer loop
vertex -0.353553 -0.353553 0.100000
vertex -0.353553 -0.353553 -0.100000
vertex -0.277785 -0.415735 -0.100000
endloop
endfacet
facet normal -0.773011 -0.634393 0.000000
outer loop
vertex -0.353553 -0.353553 -0.100000
vertex -0.353553 -0.353553 0.100000
vertex -0.415735 -0.277785 0.100000
endloop
endfacet
facet normal -0.773010 -0.634394 0.000000
outer loop
vertex -0.415735 -0.277785 0.100000
vertex -0.415735 -0.277785 -0.100000
vertex -0.353553 -0.353553 -0.100000
endloop
endfacet
facet normal -0.881921 -0.471397 0.000000
outer loop
vertex -0.415735 -0.277785 -0.100000
vertex -0.415735 -0.277785 0.100000
vertex -0.461940 -0.191342 0.100000
endloop
endfacet
facet normal -0.881921 -0.471397 0.000000
outer loop
vertex -0.461940 -0.191342 0.100000
vertex -0.461940 -0.191342 -0.100000
vertex -0.415735 -0.277785 -0.100000
endloop
endfacet
facet normal -0.956940 -0.290285 0.000000
outer loop
vertex -0.461940 -0.191342 -0.100000
vertex -0.461940 -0.191342 0.100000
vertex -0.490393 -0.097545 0.100000
endloop
endfacet
facet normal -0.956941 -0.290284 0.000000
outer loop
vertex -0.490393 -0.097545 0.100000
vertex -0.490393 -0.097545 -0.100000
vertex -0.461940 -0.191342 -0.100000
endloop
endfacet
facet normal -0.995185 -0.098017 0.000000
outer loop
vertex -0.490393 -0.097545 -0.100000
vertex -0.490393 -0.097545 0.100000
vertex -0.500000 0.000000 0.100000
endloop
endfacet
facet normal -0.995185 -0.098016 0.000000
outer loop
vertex -0.500000 0.000000 0.100000
vertex -0.500000 0.000000 -0.100000
vertex -0.490393 -0.097545 -0.100000
endloop
endfacet
facet normal -0.995185 0.098018 0.000000
outer loop
vertex -0.500000 0.000000 -0.100000
vertex -0.500000 0.000000 0.100000
vertex -0.490393 0.097545 0.100000
endloop
endfacet
facet normal -0.995185 0.098017 0.000000
outer loop
vertex -0.490393 0.097545 0.100000
vertex -0.490393 0.097545 -0.100000
vertex -0.500000 0.000000 -0.100000
endloop
endfacet
facet normal -0.956940 0.290285 0.000000
outer loop
vertex -0.490393 0.097545 -0.100000
vertex -0.490393 0.097545 0.100000
vertex -0.461940 0.191342 0.100000
endloop
endfacet
facet normal -0.956940 0.290285 0.000000
outer loop
vertex -0.461940 0.191342 0.100000
vertex -0.461940 0.191342 -0.100000
vertex -0.490393 0.097545 -0.100000
endloop
endfacet
facet normal -0.881921 0.471397 0.000000
outer loop
vertex -0.461940 0.191342 -0.100000
vertex -0.461940 0.191342 0.100000
vertex -0.415735 0.277785 0.100000
endloop
endfacet
facet normal -0.881921 0.471398 0.000000
outer loop
vertex -0.415735 0.277785 0.100000
vertex -0.415735 0.277785 -0.100000
vertex -0.461940 0.191342 -0.100000
endloop
endfacet
facet normal -0.773010 0.634393 0.000000
outer loop
vertex -0.415735 0.277785 -0.100000
vertex -0.415735 0.277785 0.100000
vertex -0.353553 0.353554 0.100000
endloop
endfacet
facet normal -0.773010 0.634394 0.000000
outer loop
vertex -0.353553 0.353554 0.100000
vertex -0.353553 0.353554 -0.100000
vertex -0.415735 0.277785 -0.100000
endloop
endfacet
facet normal -0.634393 0.773011 0.000000
outer loop
vertex -0.353553 0.353554 -0.100000
vertex -0.353553 0.353554 0.100000
vertex -0.277785 0.415735 0.100000
endloop
endfacet
facet normal -0.634393 0.773011 0.000000
outer loop
vertex -0.277785 0.415735 0.100000
vertex -0.277785 0.415735 -0.100000
vertex -0.353553 0.353554 -0.100000
endloop
endfacet
facet normal -0.471396 0.881922 0.000000
outer loop
vertex -0.277785 0.415735 -0.100000
vertex -0.277785 0.415735 0.100000
vertex -0.191341 0.461940 0.100000
endloop
endfacet
facet normal -0.471396 0.881922 0.000000
outer loop
vertex -0.191341 0.461940 0.100000
vertex -0.191341 0.461940 -0.100000
vertex -0.277785 0.415735 -0.100000
endloop
endfacet
facet normal -0.290284 0.956941 0.000000
outer loop
vertex -0.191341 0.461940 -0.100000
vertex -0.191341 0.461940 0.100000
vertex -0.097545 0.490393 0.100000
endloop
endfacet
facet normal -0.290284 0.956941 0.000000
outer loop
vertex -0.097545 0.490393 0.100000
vertex -0.097545 0.490393 -0.100000
vertex -0.191341 0.461940 -0.100000
endloop
endfacet
facet normal -0.098016 0.995185 0.000000
outer loop
vertex 0.000000 0.500000 -0.100000
vertex -0.097545 0.490393 -0.100000
vertex -0.097545 0.490393 0.100000
endloop
endfacet
facet normal -0.098016 0.995185 -0.000001
outer loop
vertex -0.097545 0.490393 0.100000
vertex -0.025000 0.497538 0.100000
vertex -0.025000 0.497538 0.000000
endloop
endfacet
facet normal -0.098017 0.995185 -0.000000
outer loop
vertex -0.025000 0.497538 0.000000
vertex 0.000000 0.500000 0.000000
vertex 0.000000 0.500000 -0.100000
endloop
endfacet
facet normal -0.098016 0.995185 0.000000
outer loop
vertex -0.097545 0.490393 0.100000
vertex -0.025000 0.497538 0.000000
vertex 0.000000 0.500000 -0.100000
endloop
endfacet
facet normal 0.098018 0.995185 0.000000
outer loop
vertex 0.097546 0.490393 -0.100000
vertex 0.000000 0.500000 -0.100000
vertex 0.000000 0.500000 0.000000
endloop
endfacet
facet normal 0.098018 0.995185 -0.000001
outer loop
vertex 0.025000 0.497538 0.000000
vertex 0.025000 0.497538 0.100000
vertex 0.097546 0.490393 0.100000
endloop
endfacet
facet normal 0.098021 0.995184 0.000005
outer loop
vertex 0.097546 0.490393 -0.100000
vertex 0.000000 0.500000 0.000000
vertex 0.025000 0.497538 0.000000
endloop
endfacet
facet normal 0.098017 0.995185 0.000000
outer loop
vertex 0.025000 0.497538 0.000000
vertex 0.097546 0.490393 0.100000
vertex 0.097546 0.490393 -0.100000
endloop
endfacet
facet normal 0.290286 0.956940 0.000000
outer loop
vertex 0.097546 0.490393 -0.100000
vertex 0.097546 0.490393 0.100000
vertex 0.191342 0.461940 0.100000
endloop
endfacet
facet normal 0.290286 0.956940 0.000000
outer loop
vertex 0.191342 0.461940 0.100000
vertex 0.191342 0.461940 -0.100000
vertex 0.097546 0.490393 -0.100000
endloop
endfacet
facet normal 0.471398 0.881921 0.000000
outer loop
vertex 0.191342 0.461940 -0.100000
vertex 0.191342 0.461940 0.100000
vertex 0.277786 0.415734 0.100000
endloop
endfacet
facet normal 0.471398 0.881921 0.000000
outer loop
vertex 0.277786 0.415734 0.100000
vertex 0.277786 0.415734 -0.100000
vertex 0.191342 0.461940 -0.100000
endloop
endfacet
facet normal 0.634394 0.773010 0.000000
outer loop
vertex 0.277786 0.415734 -0.100000
vertex 0.277786 0.415734 0.100000
vertex 0.353554 0.353553 0.100000
endloop
endfacet
facet normal 0.634394 0.773010 0.000000
outer loop
vertex 0.353554 0.353553 0.100000
vertex 0.353554 0.353553 -0.100000
vertex 0.277786 0.415734 -0.100000
endloop
endfacet
facet normal 0.773011 0.634392 0.000000
outer loop
vertex 0.353554 0.353553 -0.100000
vertex 0.353554 0.353553 0.100000
vertex 0.415735 0.277785 0.100000
endloop
endfacet
facet normal 0.773011 0.634392 0.000000
outer loop
vertex 0.415735 0.277785 0.100000
vertex 0.415735 0.277785 -0.100000
vertex 0.353554 0.353553 -0.100000
endloop
endfacet
facet normal 0.881922 0.471395 0.000000
outer loop
vertex 0.415735 0.277785 -0.100000
vertex 0.415735 0.277785 0.100000
vertex 0.461940 0.191341 0.100000
endloop
endfacet
facet normal 0.881922 0.471395 0.000000
outer loop
vertex 0.461940 0.191341 0.100000
vertex 0.461940 0.191341 -0.100000
vertex 0.415735 0.277785 -0.100000
endloop
endfacet
facet normal 0.000000 0.000000 1.000000
outer loop
vertex 0.461940 -0.191342 0.100000
vertex 0.490393 -0.097545 0.100000
vertex 0.500000 0.000000 0.100000
endloop
endfacet
facet normal 0.000000 0.000000 1.000000
outer loop
vertex 0.500000 0.000000 0.100000
vertex 0.490393 0.097544 0.100000
vertex 0.461940 0.191341 0.100000
endloop
endfacet
facet normal 0.000000 0.000000 1.000000
outer loop
vertex 0.461940 0.191341 0.100000
vertex 0.415735 0.277785 0.100000
vertex 0.353554 0.353553 0.100000
endloop
endfacet
facet normal -0.000000 0.000000 1.000000
outer loop
vertex 0.353554 0.353553 0.100000
vertex 0.277786 0.415734 0.100000
vertex 0.191342 0.461940 0.100000
endloop
endfacet
facet normal 0.000000 0.000000 1.000000
outer loop
vertex 0.191342 0.461940 0.100000
vertex 0.097546 0.490393 0.100000
vertex 0.025000 0.497538 0.100000
endloop
endfacet
facet normal 0.000000 0.000000 1.000000
outer loop
vertex 0.025000 0.497538 0.100000
vertex 0.025000 -0.497538 0.100000
vertex 0.097545 -0.490393 0.100000
endloop
endfacet
facet normal 0.000000 0.000000 1.000000
outer loop
vertex 0.097545 -0.490393 0.100000
vertex 0.191342 -0.461940 0.100000
vertex 0.277785 -0.415735 0.100000
endloop
endfacet
facet normal 0.000000 0.000000 1.000000
outer loop
vertex 0.277785 -0.415735 0.100000
vertex 0.353553 -0.353553 0.100000
vertex 0.415735 -0.277785 0.100000
endloop
endfacet
facet normal -0.000001 0.000000 1.000000
outer loop
vertex 0.415735 -0.277785 0.100000
vertex 0.461940 -0.191342 0.100000
vertex 0.500000 0.000000 0.100000
endloop
endfacet
facet normal 0.000000 0.000000 1.000000
outer loop
vertex 0.500000 0.000000 0.100000
vertex 0.461940 0.191341 0.100000
vertex 0.353554 0.353553 0.100000
endloop
endfacet
facet normal 0.000000 0.000000 1.000000
outer loop
vertex 0.353554 0.353553 0.100000
vertex 0.191342 0.461940 0.100000
vertex 0.025000 0.497538 0.100000
endloop
endfacet
facet normal 0.000000 0.000000 1.000000
outer loop
vertex 0.025000 0.497538 0.100000
vertex 0.097545 -0.490393 0.100000
vertex 0.277785 -0.415735 0.100000
endloop
endfacet
facet normal 0.000000 0.000000 1.000000
outer loop
vertex 0.277785 -0.415735 0.100000
vertex 0.415735 -0.277785 0.100000
vertex 0.500000 0.000000 0.100000
endloop
endfacet
facet normal -0.000000 0.000000 1.000000
outer loop
vertex 0.500000 0.000000 0.100000
vertex 0.353554 0.353553 0.100000
vertex 0.025000 0.497538 0.100000
endloop
endfacet
facet normal 0.000000 0.000000 1.000000
outer loop
vertex 0.500000 0.000000 0.100000
vertex 0.025000 0.497538 0.100000
vertex 0.277785 -0.415735 0.100000
endloop
endfacet
facet normal 0.956941 0.290283 0.000000
outer loop
vertex 0.461940 0.191341 -0.100000
vertex 0.461940 0.191341 0.100000
vertex 0.490393 0.097544 0.100000
endloop
endfacet
facet normal 0.956941 0.290283 0.000000
outer loop
vertex 0.490393 0.097544 0.100000
vertex 0.490393 0.097544 -0.100000
vertex 0.461940 0.191341 -0.100000
endloop
endfacet
facet normal 0.995185 0.098017 0.000000
outer loop
vertex 0.490393 0.097544 -0.100000
vertex 0.490393 0.097544 0.100000
vertex 0.500000 0.000000 0.100000
endloop
endfacet
facet normal 0.995185 0.098017 0.000000
outer loop
vertex 0.500000 0.000000 0.100000
vertex 0.500000 0.000000 -0.100000
vertex 0.490393 0.097544 -0.100000
endloop
endfacet
facet normal 0.000001 0.000000 -1.000000
outer loop
vertex 0.490393 0.097544 -0.100000
vertex 0.500000 0.000000 -0.100000
vertex 0.490393 -0.097545 -0.100000
endloop
endfacet
facet normal -0.000001 0.000000 -1.000000
outer loop
vertex 0.490393 -0.097545 -0.100000
vertex 0.461940 -0.191342 -0.100000
vertex 0.415735 -0.277785 -0.100000
endloop
endfacet
facet normal 0.000000 0.000000 -1.000000
outer loop
vertex 0.415735 -0.277785 -0.100000
vertex 0.353553 -0.353553 -0.100000
vertex 0.277785 -0.415735 -0.100000
endloop
endfacet
facet normal 0.000000 0.000000 -1.000000
outer loop
vertex 0.277785 -0.415735 -0.100000
vertex 0.191342 -0.461940 -0.100000
vertex 0.097545 -0.490393 -0.100000
endloop
endfacet
facet normal 0.000000 0.000000 -1.000000
outer loop
vertex 0.097545 -0.490393 -0.100000
vertex 0.000000 -0.500000 -0.100000
vertex -0.097545 -0.490393 -0.100000
endloop
endfacet
facet normal 0.000000 0.000000 -1.000000
outer loop
vertex -0.097545 -0.490393 -0.100000
vertex -0.191342 -0.461940 -0.100000
vertex -0.277785 -0.415735 -0.100000
endloop
endfacet
facet normal 0.000000 0.000000 -1.000000
outer loop
vertex -0.277785 -0.415735 -0.100000
vertex -0.353553 -0.353553 -0.100000
vertex -0.415735 -0.277785 -0.100000
endloop
endfacet
facet normal 0.000000 0.000000 -1.000000
outer loop
vertex -0.415735 -0.277785 -0.100000
vertex -0.461940 -0.191342 -0.100000
vertex -0.490393 -0.097545 -0.100000
endloop
endfacet
facet normal -0.000001 0.000000 -1.000000
outer loop
vertex -0.490393 -0.097545 -0.100000
vertex -0.500000 0.000000 -0.100000
vertex -0.490393 0.097545 -0.100000
endloop
endfacet
facet normal -0.000001 0.000000 -1.000000
outer loop
vertex -0.490393 0.097545 -0.100000
vertex -0.461940 0.191342 -0.100000
vertex -0.415735 0.277785 -0.100000
endloop
endfacet
facet normal 0.000000 0.000000 -1.000000
outer loop
vertex -0.415735 0.277785 -0.100000
vertex -0.353553 0.353554 -0.100000
vertex -0.277785 0.415735 -0.100000
endloop
endfacet
facet normal 0.000000 0.000000 -1.000000
outer loop
vertex -0.277785 0.415735 -0.100000
vertex -0.191341 0.461940 -0.100000
vertex -0.097545 0.490393 -0.100000
endloop
endfacet
facet normal 0.000000 0.000000 -1.000000
outer loop
vertex -0.097545 0.490393 -0.100000
vertex 0.000000 0.500000 -0.100000
vertex 0.097546 0.490393 -0.100000
endloop
endfacet
facet normal 0.000000 0.000000 -1.000000
outer loop
vertex 0.097546 0.490393 -0.100000
vertex 0.191342 0.461940 -0.100000
vertex 0.277786 0.415734 -0.100000
endloop
endfacet
facet normal -0.000000 0.000000 -1.000000
outer loop
vertex 0.277786 0.415734 -0.100000
vertex 0.353554 0.353553 -0.100000
vertex 0.415735 0.277785 -0.100000
endloop
endfacet
facet normal 0.000001 0.000000 -1.000000
outer loop
vertex 0.415735 0.277785 -0.100000
vertex 0.461940 0.191341 -0.100000
vertex 0.490393 0.097544 -0.100000
endloop
endfacet
facet normal -0.000000 0.000000 -1.000000
outer loop
vertex 0.490393 0.097544 -0.100000
vertex 0.490393 -0.097545 -0.100000
vertex 0.415735 -0.277785 -0.100000
endloop
endfacet
facet normal 0.000000 0.000000 -1.000000
outer loop
vertex 0.415735 -0.277785 -0.100000
vertex 0.277785 -0.415735 -0.100000
vertex 0.097545 -0.490393 -0.100000
endloop
endfacet
facet normal 0.000000 0.000000 -1.000000
outer loop
vertex 0.097545 -0.490393 -0.100000
vertex -0.097545 -0.490393 -0.100000
vertex -0.277785 -0.415735 -0.100000
endloop
endfacet
facet normal -0.000001 0.000000 -1.000000
outer loop
vertex -0.277785 -0.415735 -0.100000
vertex -0.415735 -0.277785 -0.100000
vertex -0.490393 -0.097545 -0.100000
endloop
endfacet
facet normal 0.000000 0.000000 -1.000000
outer loop
vertex -0.490393 -0.097545 -0.100000
vertex -0.490393 0.097545 -0.100000
vertex -0.415735 0.277785 -0.100000
endloop
endfacet
facet normal -0.000000 0.000000 -1.000000
outer loop
vertex -0.415735 0.277785 -0.100000
vertex -0.277785 0.415735 -0.100000
vertex -0.097545 0.490393 -0.100000
endloop
endfacet
facet normal 0.000000 0.000000 -1.000000
outer loop
vertex -0.097545 0.490393 -0.100000
vertex 0.097546 0.490393 -0.100000
vertex 0.277786 0.415734 -0.100000
endloop
endfacet
facet normal 0.000000 0.000000 -1.000000
outer loop
vertex 0.277786 0.415734 -0.100000
vertex 0.415735 0.277785 -0.100000
vertex 0.490393 0.097544 -0.100000
endloop
endfacet
facet normal 0.000000 0.000000 -1.000000
outer loop
vertex 0.490393 0.097544 -0.100000
vertex 0.415735 -0.277785 -0.100000
vertex 0.097545 -0.490393 -0.100000
endloop
endfacet
facet normal 0.000000 0.000000 -1.000000
outer loop
vertex 0.097545 -0.490393 -0.100000
vertex -0.277785 -0.415735 -0.100000
vertex -0.490393 -0.097545 -0.100000
endloop
endfacet
facet normal -0.000000 0.000000 -1.000000
outer loop
vertex -0.490393 -0.097545 -0.100000
vertex -0.415735 0.277785 -0.100000
vertex -0.097545 0.490393 -0.100000
endloop
endfacet
facet normal 0.000000 0.000000 -1.000000
outer loop
vertex -0.097545 0.490393 -0.100000
vertex 0.277786 0.415734 -0.100000
vertex 0.490393 0.097544 -0.100000
endloop
endfacet
facet normal 0.000000 0.000000 -1.000000
outer loop
vertex 0.490393 0.097544 -0.100000
vertex 0.097545 -0.490393 -0.100000
vertex -0.490393 -0.097545 -0.100000
endloop
endfacet
facet normal 0.000000 0.000000 -1.000000
outer loop
vertex -0.490393 -0.097545 -0.100000
vertex -0.097545 0.490393 -0.100000
vertex 0.490393 0.097544 -0.100000
endloop
endfacet
facet normal 0.000000 0.000000 -1.000000
outer loop
vertex -0.025000 -0.497538 0.000000
vertex 0.000000 -0.500000 0.000000
vertex -0.025000 -0.500000 0.000000
endloop
endfacet
facet normal 0.000000 0.000000 -1.000000
outer loop
vertex 0.000000 -0.500000 0.000000
vertex 0.025000 -0.497538 0.000000
vertex 0.025000 -0.500000 0.000000
endloop
endfacet
facet normal 0.000000 0.000000 -1.000000
outer loop
vertex 0.025000 0.497538 0.000000
vertex 0.000000 0.500000 0.000000
vertex 0.025000 0.500000 0.000000
endloop
endfacet
facet normal 0.000000 0.000000 1.000000
outer loop
vertex -0.097545 -0.490393 0.100000
vertex -0.025000 -0.497538 0.100000
vertex -0.025000 0.497538 0.100000
endloop
endfacet
facet normal 0.000000 0.000000 1.000000
outer loop
vertex -0.025000 0.497538 0.100000
vertex -0.097545 0.490393 0.100000
vertex -0.191341 0.461940 0.100000
endloop
endfacet
facet normal 0.000000 0.000000 1.000000
outer loop
vertex -0.191341 0.461940 0.100000
vertex -0.277785 0.415735 0.100000
vertex -0.353553 0.353554 0.100000
endloop
endfacet
facet normal 0.000000 0.000000 1.000000
outer loop
vertex -0.353553 0.353554 0.100000
vertex -0.415735 0.277785 0.100000
vertex -0.461940 0.191342 0.100000
endloop
endfacet
facet normal 0.000001 0.000000 1.000000
outer loop
vertex -0.461940 0.191342 0.100000
vertex -0.490393 0.097545 0.100000
vertex -0.500000 0.000000 0.100000
endloop
endfacet
facet normal 0.000000 0.000000 1.000000
outer loop
vertex -0.500000 0.000000 0.100000
vertex -0.490393 -0.097545 0.100000
vertex -0.461940 -0.191342 0.100000
endloop
endfacet
facet normal -0.000000 0.000000 1.000000
outer loop
vertex -0.461940 -0.191342 0.100000
vertex -0.415735 -0.277785 0.100000
vertex -0.353553 -0.353553 0.100000
endloop
endfacet
facet normal 0.000000 0.000000 1.000000
outer loop
vertex -0.353553 -0.353553 0.100000
vertex -0.277785 -0.415735 0.100000
vertex -0.191342 -0.461940 0.100000
endloop
endfacet
facet normal 0.000000 0.000000 1.000000
outer loop
vertex -0.191342 -0.461940 0.100000
vertex -0.097545 -0.490393 0.100000
vertex -0.025000 0.497538 0.100000
endloop
endfacet
facet normal -0.000000 0.000000 1.000000
outer loop
vertex -0.025000 0.497538 0.100000
vertex -0.191341 0.461940 0.100000
vertex -0.353553 0.353554 0.100000
endloop
endfacet
facet normal -0.000000 0.000000 1.000000
outer loop
vertex -0.353553 0.353554 0.100000
vertex -0.461940 0.191342 0.100000
vertex -0.500000 0.000000 0.100000
endloop
endfacet
facet normal 0.000000 0.000000 1.000000
outer loop
vertex -0.500000 0.000000 0.100000
vertex -0.461940 -0.191342 0.100000
vertex -0.353553 -0.353553 0.100000
endloop
endfacet
facet normal 0.000000 0.000000 1.000000
outer loop
vertex -0.353553 -0.353553 0.100000
vertex -0.191342 -0.461940 0.100000
vertex -0.025000 0.497538 0.100000
endloop
endfacet
facet normal 0.000000 0.000000 1.000000
outer loop
vertex -0.025000 0.497538 0.100000
vertex -0.353553 0.353554 0.100000
vertex -0.500000 0.000000 0.100000
endloop
endfacet
facet normal 0.000000 0.000000 1.000000
outer loop
vertex -0.025000 0.497538 0.100000
vertex -0.500000 0.000000 0.100000
vertex -0.353553 -0.353553 0.100000
endloop
endfacet
endsolid Exported from Blender-2.79 (sub 0)
