solid Exported from Blender-2.79 (sub 0)
facet normal 0.000000 0.000000 -1.000000
outer loop
vertex 3.999999 0.000000 -0.050000
vertex 0.000001 0.000000 -0.050000
vertex 0.000001 1.000000 -0.050000
endloop
endfacet
facet normal -0.000000 0.000000 -1.000000
outer loop
vertex 0.000001 1.000000 -0.050000
vertex 4.000000 0.250000 -0.050000
vertex 3.999999 0.000000 -0.050000
endloop
endfacet
facet normal 0.000000 0.000000 1.000000
outer loop
vertex 3.999998 0.000000 0.050000
vertex 3.999999 0.250000 0.050000
vertex 0.000002 1.000000 0.050000
endloop
endfacet
facet normal 0.000000 0.000000 1.000000
outer loop
vertex 0.000002 1.000000 0.050000
vertex -0.000000 0.000001 0.050000
vertex 3.999998 0.000000 0.050000
endloop
endfacet
facet normal -0.000000 -1.000000 -0.000002
outer loop
vertex 3.999999 0.000000 -0.050000
vertex 3.999998 0.000000 0.050000
vertex -0.000000 0.000001 0.050000
endloop
endfacet
facet normal 0.000000 -1.000000 0.000003
outer loop
vertex -0.000000 0.000001 0.050000
vertex 0.000001 0.000000 -0.050000
vertex 3.999999 0.000000 -0.050000
endloop
endfacet
facet normal -1.000000 0.000002 -0.000012
outer loop
vertex 0.000001 0.000000 -0.050000
vertex -0.000000 0.000001 0.050000
vertex 0.000002 1.000000 0.050000
endloop
endfacet
facet normal -1.000000 0.000000 0.000004
outer loop
vertex 0.000002 1.000000 0.050000
vertex 0.000001 1.000000 -0.050000
vertex 0.000001 0.000000 -0.050000
endloop
endfacet
facet normal 0.184289 0.982872 0.000000
outer loop
vertex 0.000001 1.000000 -0.050000
vertex 0.000002 1.000000 0.050000
vertex 3.999999 0.250000 0.050000
endloop
endfacet
facet normal 0.184289 0.982872 0.000001
outer loop
vertex 3.999999 0.250000 0.050000
vertex 4.000000 0.250000 -0.050000
vertex 0.000001 1.000000 -0.050000
endloop
endfacet
facet normal 1.000000 -0.000005 0.000010
outer loop
vertex 3.999998 0.000000 0.050000
vertex 3.999999 0.000000 -0.050000
vertex 4.000000 0.250000 -0.050000
endloop
endfacet
facet normal 1.000000 -0.000002 0.000007
outer loop
vertex 4.000000 0.250000 -0.050000
vertex 3.999999 0.250000 0.050000
vertex 3.999998 0.000000 0.050000
endloop
endfacet
endsolid Exported from Blender-2.79 (sub 0)
