solid Exported from Blender-2.79 (sub 0)
facet normal 0.995185 -0.098017 0.000000
outer loop
vertex 0.100000 -0.600000 1.050000
vertex 0.100000 -0.600000 1.150000
vertex 0.098079 -0.619509 1.150000
endloop
endfacet
facet normal 0.995185 -0.098017 0.000000
outer loop
vertex 0.098079 -0.619509 1.150000
vertex 0.098079 -0.619509 1.050000
vertex 0.100000 -0.600000 1.050000
endloop
endfacet
facet normal 0.956940 -0.290285 0.000000
outer loop
vertex 0.098079 -0.619509 1.050000
vertex 0.098079 -0.619509 1.150000
vertex 0.092388 -0.638268 1.150000
endloop
endfacet
facet normal 0.956940 -0.290285 0.000000
outer loop
vertex 0.092388 -0.638268 1.150000
vertex 0.092388 -0.638268 1.050000
vertex 0.098079 -0.619509 1.050000
endloop
endfacet
facet normal 0.881921 -0.471396 0.000000
outer loop
vertex 0.092388 -0.638268 1.050000
vertex 0.092388 -0.638268 1.150000
vertex 0.083147 -0.655557 1.150000
endloop
endfacet
facet normal 0.881921 -0.471396 0.000000
outer loop
vertex 0.083147 -0.655557 1.150000
vertex 0.083147 -0.655557 1.050000
vertex 0.092388 -0.638268 1.050000
endloop
endfacet
facet normal 0.773011 -0.634392 0.000000
outer loop
vertex 0.083147 -0.655557 1.050000
vertex 0.083147 -0.655557 1.150000
vertex 0.070711 -0.670711 1.150000
endloop
endfacet
facet normal 0.773010 -0.634394 0.000000
outer loop
vertex 0.070711 -0.670711 1.150000
vertex 0.070711 -0.670711 1.050000
vertex 0.083147 -0.655557 1.050000
endloop
endfacet
facet normal 0.634395 -0.773009 0.000000
outer loop
vertex 0.070711 -0.670711 1.050000
vertex 0.070711 -0.670711 1.150000
vertex 0.055557 -0.683147 1.150000
endloop
endfacet
facet normal 0.634395 -0.773009 0.000000
outer loop
vertex 0.055557 -0.683147 1.150000
vertex 0.055557 -0.683147 1.050000
vertex 0.070711 -0.670711 1.050000
endloop
endfacet
facet normal 0.471397 -0.881921 0.000000
outer loop
vertex 0.055557 -0.683147 1.050000
vertex 0.055557 -0.683147 1.150000
vertex 0.038268 -0.692388 1.150000
endloop
endfacet
facet normal 0.471396 -0.881921 0.000000
outer loop
vertex 0.038268 -0.692388 1.150000
vertex 0.038268 -0.692388 1.050000
vertex 0.055557 -0.683147 1.050000
endloop
endfacet
facet normal 0.290285 -0.956940 0.000000
outer loop
vertex 0.038268 -0.692388 1.050000
vertex 0.038268 -0.692388 1.150000
vertex 0.019509 -0.698079 1.150000
endloop
endfacet
facet normal 0.290285 -0.956940 0.000000
outer loop
vertex 0.019509 -0.698079 1.150000
vertex 0.019509 -0.698079 1.050000
vertex 0.038268 -0.692388 1.050000
endloop
endfacet
facet normal 0.098017 -0.995185 0.000000
outer loop
vertex 0.019509 -0.698079 1.050000
vertex 0.019509 -0.698079 1.150000
vertex 0.000000 -0.700000 1.150000
endloop
endfacet
facet normal 0.098017 -0.995185 0.000000
outer loop
vertex 0.000000 -0.700000 1.150000
vertex 0.000000 -0.700000 1.050000
vertex 0.019509 -0.698079 1.050000
endloop
endfacet
facet normal -0.098017 -0.995185 0.000000
outer loop
vertex 0.000000 -0.700000 1.050000
vertex 0.000000 -0.700000 1.150000
vertex -0.019509 -0.698079 1.150000
endloop
endfacet
facet normal -0.098017 -0.995185 0.000000
outer loop
vertex -0.019509 -0.698079 1.150000
vertex -0.019509 -0.698079 1.050000
vertex 0.000000 -0.700000 1.050000
endloop
endfacet
facet normal -0.290285 -0.956940 0.000000
outer loop
vertex -0.019509 -0.698079 1.050000
vertex -0.019509 -0.698079 1.150000
vertex -0.038268 -0.692388 1.150000
endloop
endfacet
facet normal -0.290285 -0.956940 0.000000
outer loop
vertex -0.038268 -0.692388 1.150000
vertex -0.038268 -0.692388 1.050000
vertex -0.019509 -0.698079 1.050000
endloop
endfacet
facet normal -0.471397 -0.881921 0.000000
outer loop
vertex -0.038268 -0.692388 1.050000
vertex -0.038268 -0.692388 1.150000
vertex -0.055557 -0.683147 1.150000
endloop
endfacet
facet normal -0.471396 -0.881922 0.000000
outer loop
vertex -0.055557 -0.683147 1.150000
vertex -0.055557 -0.683147 1.050000
vertex -0.038268 -0.692388 1.050000
endloop
endfacet
facet normal -0.634395 -0.773009 0.000000
outer loop
vertex -0.055557 -0.683147 1.050000
vertex -0.055557 -0.683147 1.150000
vertex -0.070711 -0.670711 1.150000
endloop
endfacet
facet normal -0.634395 -0.773009 0.000000
outer loop
vertex -0.070711 -0.670711 1.150000
vertex -0.070711 -0.670711 1.050000
vertex -0.055557 -0.683147 1.050000
endloop
endfacet
facet normal -0.773011 -0.634393 0.000000
outer loop
vertex -0.070711 -0.670711 1.050000
vertex -0.070711 -0.670711 1.150000
vertex -0.083147 -0.655557 1.150000
endloop
endfacet
facet normal -0.773010 -0.634394 0.000000
outer loop
vertex -0.083147 -0.655557 1.150000
vertex -0.083147 -0.655557 1.050000
vertex -0.070711 -0.670711 1.050000
endloop
endfacet
facet normal -0.881921 -0.471396 0.000000
outer loop
vertex -0.083147 -0.655557 1.050000
vertex -0.083147 -0.655557 1.150000
vertex -0.092388 -0.638268 1.150000
endloop
endfacet
facet normal -0.881921 -0.471397 0.000000
outer loop
vertex -0.092388 -0.638268 1.150000
vertex -0.092388 -0.638268 1.050000
vertex -0.083147 -0.655557 1.050000
endloop
endfacet
facet normal -0.956941 -0.290284 0.000000
outer loop
vertex -0.092388 -0.638268 1.050000
vertex -0.092388 -0.638268 1.150000
vertex -0.098079 -0.619509 1.150000
endloop
endfacet
facet normal -0.956940 -0.290285 0.000000
outer loop
vertex -0.098079 -0.619509 1.150000
vertex -0.098079 -0.619509 1.050000
vertex -0.092388 -0.638268 1.050000
endloop
endfacet
facet normal -0.995185 -0.098018 0.000000
outer loop
vertex -0.098079 -0.619509 1.050000
vertex -0.098079 -0.619509 1.150000
vertex -0.100000 -0.600000 1.150000
endloop
endfacet
facet normal -0.995185 -0.098016 0.000000
outer loop
vertex -0.100000 -0.600000 1.150000
vertex -0.100000 -0.600000 1.050000
vertex -0.098079 -0.619509 1.050000
endloop
endfacet
facet normal -0.995185 0.098018 0.000000
outer loop
vertex -0.100000 -0.600000 1.050000
vertex -0.100000 -0.600000 1.150000
vertex -0.098079 -0.580491 1.150000
endloop
endfacet
facet normal -0.995185 0.098017 0.000000
outer loop
vertex -0.098079 -0.580491 1.150000
vertex -0.098079 -0.580491 1.050000
vertex -0.100000 -0.600000 1.050000
endloop
endfacet
facet normal -0.956940 0.290285 0.000000
outer loop
vertex -0.098079 -0.580491 1.050000
vertex -0.098079 -0.580491 1.150000
vertex -0.092388 -0.561732 1.150000
endloop
endfacet
facet normal -0.956940 0.290285 0.000000
outer loop
vertex -0.092388 -0.561732 1.150000
vertex -0.092388 -0.561732 1.050000
vertex -0.098079 -0.580491 1.050000
endloop
endfacet
facet normal -0.881921 0.471396 0.000000
outer loop
vertex -0.092388 -0.561732 1.050000
vertex -0.092388 -0.561732 1.150000
vertex -0.083147 -0.544443 1.150000
endloop
endfacet
facet normal -0.881921 0.471398 0.000000
outer loop
vertex -0.083147 -0.544443 1.150000
vertex -0.083147 -0.544443 1.050000
vertex -0.092388 -0.561732 1.050000
endloop
endfacet
facet normal -0.773010 0.634393 0.000000
outer loop
vertex -0.083147 -0.544443 1.050000
vertex -0.083147 -0.544443 1.150000
vertex -0.070711 -0.529289 1.150000
endloop
endfacet
facet normal -0.773010 0.634394 0.000000
outer loop
vertex -0.070711 -0.529289 1.150000
vertex -0.070711 -0.529289 1.050000
vertex -0.083147 -0.544443 1.050000
endloop
endfacet
facet normal -0.634392 0.773011 0.000000
outer loop
vertex -0.070711 -0.529289 1.050000
vertex -0.070711 -0.529289 1.150000
vertex -0.055557 -0.516853 1.150000
endloop
endfacet
facet normal -0.634393 0.773011 0.000000
outer loop
vertex -0.055557 -0.516853 1.150000
vertex -0.055557 -0.516853 1.050000
vertex -0.070711 -0.529289 1.050000
endloop
endfacet
facet normal -0.471397 0.881921 0.000000
outer loop
vertex -0.055557 -0.516853 1.050000
vertex -0.055557 -0.516853 1.150000
vertex -0.038268 -0.507612 1.150000
endloop
endfacet
facet normal -0.471396 0.881922 0.000000
outer loop
vertex -0.038268 -0.507612 1.150000
vertex -0.038268 -0.507612 1.050000
vertex -0.055557 -0.516853 1.050000
endloop
endfacet
facet normal -0.290284 0.956940 0.000000
outer loop
vertex -0.038268 -0.507612 1.050000
vertex -0.038268 -0.507612 1.150000
vertex -0.019509 -0.501921 1.150000
endloop
endfacet
facet normal -0.290284 0.956940 0.000000
outer loop
vertex -0.019509 -0.501921 1.150000
vertex -0.019509 -0.501921 1.050000
vertex -0.038268 -0.507612 1.050000
endloop
endfacet
facet normal -0.098017 0.995185 0.000000
outer loop
vertex -0.019509 -0.501921 1.050000
vertex -0.019509 -0.501921 1.150000
vertex 0.000000 -0.500000 1.150000
endloop
endfacet
facet normal -0.098017 0.995185 0.000000
outer loop
vertex 0.000000 -0.500000 1.150000
vertex 0.000000 -0.500000 1.050000
vertex -0.019509 -0.501921 1.050000
endloop
endfacet
facet normal 0.098020 0.995184 0.000000
outer loop
vertex 0.000000 -0.500000 1.050000
vertex 0.000000 -0.500000 1.150000
vertex 0.019509 -0.501922 1.150000
endloop
endfacet
facet normal 0.098020 0.995184 0.000000
outer loop
vertex 0.019509 -0.501922 1.150000
vertex 0.019509 -0.501922 1.050000
vertex 0.000000 -0.500000 1.050000
endloop
endfacet
facet normal 0.290285 0.956940 0.000000
outer loop
vertex 0.019509 -0.501922 1.050000
vertex 0.019509 -0.501922 1.150000
vertex 0.038268 -0.507612 1.150000
endloop
endfacet
facet normal 0.290285 0.956940 0.000000
outer loop
vertex 0.038268 -0.507612 1.150000
vertex 0.038268 -0.507612 1.050000
vertex 0.019509 -0.501922 1.050000
endloop
endfacet
facet normal 0.471399 0.881920 0.000000
outer loop
vertex 0.038268 -0.507612 1.050000
vertex 0.038268 -0.507612 1.150000
vertex 0.055557 -0.516853 1.150000
endloop
endfacet
facet normal 0.471399 0.881920 0.000000
outer loop
vertex 0.055557 -0.516853 1.150000
vertex 0.055557 -0.516853 1.050000
vertex 0.038268 -0.507612 1.050000
endloop
endfacet
facet normal 0.634393 0.773011 0.000000
outer loop
vertex 0.055557 -0.516853 1.050000
vertex 0.055557 -0.516853 1.150000
vertex 0.070711 -0.529289 1.150000
endloop
endfacet
facet normal 0.634393 0.773010 0.000000
outer loop
vertex 0.070711 -0.529289 1.150000
vertex 0.070711 -0.529289 1.050000
vertex 0.055557 -0.516853 1.050000
endloop
endfacet
facet normal 0.773011 0.634392 0.000000
outer loop
vertex 0.070711 -0.529289 1.050000
vertex 0.070711 -0.529289 1.150000
vertex 0.083147 -0.544443 1.150000
endloop
endfacet
facet normal 0.773012 0.634391 0.000000
outer loop
vertex 0.083147 -0.544443 1.150000
vertex 0.083147 -0.544443 1.050000
vertex 0.070711 -0.529289 1.050000
endloop
endfacet
facet normal 0.881922 0.471395 0.000000
outer loop
vertex 0.083147 -0.544443 1.050000
vertex 0.083147 -0.544443 1.150000
vertex 0.092388 -0.561732 1.150000
endloop
endfacet
facet normal 0.881921 0.471396 0.000000
outer loop
vertex 0.092388 -0.561732 1.150000
vertex 0.092388 -0.561732 1.050000
vertex 0.083147 -0.544443 1.050000
endloop
endfacet
facet normal 0.000000 0.000000 1.000000
outer loop
vertex 0.092388 -0.638268 1.150000
vertex 0.098079 -0.619509 1.150000
vertex 0.100000 -0.600000 1.150000
endloop
endfacet
facet normal -0.000050 0.000000 1.000000
outer loop
vertex 0.100000 -0.600000 1.150000
vertex 0.098079 -0.580491 1.150000
vertex 0.092388 -0.561732 1.150000
endloop
endfacet
facet normal 0.000000 0.000000 1.000000
outer loop
vertex 0.092388 -0.561732 1.150000
vertex 0.083147 -0.544443 1.150000
vertex 0.070711 -0.529289 1.150000
endloop
endfacet
facet normal 0.000025 0.000000 1.000000
outer loop
vertex 0.070711 -0.529289 1.150000
vertex 0.055557 -0.516853 1.150000
vertex 0.038268 -0.507612 1.150000
endloop
endfacet
facet normal 0.000006 0.000000 1.000000
outer loop
vertex 0.038268 -0.507612 1.150000
vertex 0.019509 -0.501922 1.150000
vertex 0.000000 -0.500000 1.150000
endloop
endfacet
facet normal 0.000000 0.000000 1.000000
outer loop
vertex 0.000000 -0.500000 1.150000
vertex -0.019509 -0.501921 1.150000
vertex -0.038268 -0.507612 1.150000
endloop
endfacet
facet normal 0.000000 0.000000 1.000000
outer loop
vertex -0.038268 -0.507612 1.150000
vertex -0.055557 -0.516853 1.150000
vertex -0.070711 -0.529289 1.150000
endloop
endfacet
facet normal 0.000000 0.000000 1.000000
outer loop
vertex -0.070711 -0.529289 1.150000
vertex -0.083147 -0.544443 1.150000
vertex -0.092388 -0.561732 1.150000
endloop
endfacet
facet normal 0.000000 0.000000 1.000000
outer loop
vertex -0.092388 -0.561732 1.150000
vertex -0.098079 -0.580491 1.150000
vertex -0.100000 -0.600000 1.150000
endloop
endfacet
facet normal -0.000050 0.000000 1.000000
outer loop
vertex -0.100000 -0.600000 1.150000
vertex -0.098079 -0.619509 1.150000
vertex -0.092388 -0.638268 1.150000
endloop
endfacet
facet normal 0.000000 0.000000 1.000000
outer loop
vertex -0.092388 -0.638268 1.150000
vertex -0.083147 -0.655557 1.150000
vertex -0.070711 -0.670711 1.150000
endloop
endfacet
facet normal 0.000000 0.000000 1.000000
outer loop
vertex -0.070711 -0.670711 1.150000
vertex -0.055557 -0.683147 1.150000
vertex -0.038268 -0.692388 1.150000
endloop
endfacet
facet normal 0.000006 0.000000 1.000000
outer loop
vertex -0.038268 -0.692388 1.150000
vertex -0.019509 -0.698079 1.150000
vertex 0.000000 -0.700000 1.150000
endloop
endfacet
facet normal 0.000000 0.000000 1.000000
outer loop
vertex 0.000000 -0.700000 1.150000
vertex 0.019509 -0.698079 1.150000
vertex 0.038268 -0.692388 1.150000
endloop
endfacet
facet normal 0.000000 0.000000 1.000000
outer loop
vertex 0.038268 -0.692388 1.150000
vertex 0.055557 -0.683147 1.150000
vertex 0.070711 -0.670711 1.150000
endloop
endfacet
facet normal 0.000000 0.000000 1.000000
outer loop
vertex 0.070711 -0.670711 1.150000
vertex 0.083147 -0.655557 1.150000
vertex 0.092388 -0.638268 1.150000
endloop
endfacet
facet normal 0.000013 0.000000 1.000000
outer loop
vertex 0.092388 -0.638268 1.150000
vertex 0.100000 -0.600000 1.150000
vertex 0.092388 -0.561732 1.150000
endloop
endfacet
facet normal 0.000000 0.000000 1.000000
outer loop
vertex 0.092388 -0.561732 1.150000
vertex 0.070711 -0.529289 1.150000
vertex 0.038268 -0.507612 1.150000
endloop
endfacet
facet normal 0.000000 0.000000 1.000000
outer loop
vertex 0.038268 -0.507612 1.150000
vertex 0.000000 -0.500000 1.150000
vertex -0.038268 -0.507612 1.150000
endloop
endfacet
facet normal 0.000013 0.000000 1.000000
outer loop
vertex -0.038268 -0.507612 1.150000
vertex -0.070711 -0.529289 1.150000
vertex -0.092388 -0.561732 1.150000
endloop
endfacet
facet normal 0.000013 0.000000 1.000000
outer loop
vertex -0.092388 -0.561732 1.150000
vertex -0.100000 -0.600000 1.150000
vertex -0.092388 -0.638268 1.150000
endloop
endfacet
facet normal 0.000013 0.000000 1.000000
outer loop
vertex -0.092388 -0.638268 1.150000
vertex -0.070711 -0.670711 1.150000
vertex -0.038268 -0.692388 1.150000
endloop
endfacet
facet normal 0.000000 0.000000 1.000000
outer loop
vertex -0.038268 -0.692388 1.150000
vertex 0.000000 -0.700000 1.150000
vertex 0.038268 -0.692388 1.150000
endloop
endfacet
facet normal -0.000013 0.000000 1.000000
outer loop
vertex 0.038268 -0.692388 1.150000
vertex 0.070711 -0.670711 1.150000
vertex 0.092388 -0.638268 1.150000
endloop
endfacet
facet normal 0.000002 0.000000 1.000000
outer loop
vertex 0.092388 -0.638268 1.150000
vertex 0.092388 -0.561732 1.150000
vertex 0.038268 -0.507612 1.150000
endloop
endfacet
facet normal 0.000000 0.000000 1.000000
outer loop
vertex 0.038268 -0.507612 1.150000
vertex -0.038268 -0.507612 1.150000
vertex -0.092388 -0.561732 1.150000
endloop
endfacet
facet normal -0.000004 0.000000 1.000000
outer loop
vertex -0.092388 -0.561732 1.150000
vertex -0.092388 -0.638268 1.150000
vertex -0.038268 -0.692388 1.150000
endloop
endfacet
facet normal 0.000000 0.000000 1.000000
outer loop
vertex -0.038268 -0.692388 1.150000
vertex 0.038268 -0.692388 1.150000
vertex 0.092388 -0.638268 1.150000
endloop
endfacet
facet normal -0.000001 0.000000 1.000000
outer loop
vertex 0.092388 -0.638268 1.150000
vertex 0.038268 -0.507612 1.150000
vertex -0.092388 -0.561732 1.150000
endloop
endfacet
facet normal 0.000001 0.000000 1.000000
outer loop
vertex -0.092388 -0.561732 1.150000
vertex -0.038268 -0.692388 1.150000
vertex 0.092388 -0.638268 1.150000
endloop
endfacet
facet normal 0.956941 0.290283 0.000000
outer loop
vertex 0.092388 -0.561732 1.050000
vertex 0.092388 -0.561732 1.150000
vertex 0.098079 -0.580491 1.150000
endloop
endfacet
facet normal 0.956941 0.290284 0.000000
outer loop
vertex 0.098079 -0.580491 1.150000
vertex 0.098079 -0.580491 1.050000
vertex 0.092388 -0.561732 1.050000
endloop
endfacet
facet normal 0.995185 0.098017 0.000000
outer loop
vertex 0.100000 -0.600000 1.150000
vertex 0.100000 -0.600000 1.050000
vertex 0.098079 -0.580491 1.050000
endloop
endfacet
facet normal 0.995185 0.098016 0.000000
outer loop
vertex 0.098079 -0.580491 1.050000
vertex 0.098079 -0.580491 1.150000
vertex 0.100000 -0.600000 1.150000
endloop
endfacet
facet normal 0.000050 0.000000 -1.000000
outer loop
vertex 0.098079 -0.580491 1.050000
vertex 0.100000 -0.600000 1.050000
vertex 0.098079 -0.619509 1.050000
endloop
endfacet
facet normal -0.000050 0.000000 -1.000000
outer loop
vertex 0.098079 -0.619509 1.050000
vertex 0.092388 -0.638268 1.050000
vertex 0.083147 -0.655557 1.050000
endloop
endfacet
facet normal -0.000025 0.000000 -1.000000
outer loop
vertex 0.083147 -0.655557 1.050000
vertex 0.070711 -0.670711 1.050000
vertex 0.055557 -0.683147 1.050000
endloop
endfacet
facet normal -0.000025 0.000000 -1.000000
outer loop
vertex 0.055557 -0.683147 1.050000
vertex 0.038268 -0.692388 1.050000
vertex 0.019509 -0.698079 1.050000
endloop
endfacet
facet normal 0.000000 0.000000 -1.000000
outer loop
vertex 0.019509 -0.698079 1.050000
vertex 0.000000 -0.700000 1.050000
vertex -0.019509 -0.698079 1.050000
endloop
endfacet
facet normal 0.000025 0.000000 -1.000000
outer loop
vertex -0.019509 -0.698079 1.050000
vertex -0.038268 -0.692388 1.050000
vertex -0.055557 -0.683147 1.050000
endloop
endfacet
facet normal 0.000000 0.000000 -1.000000
outer loop
vertex -0.055557 -0.683147 1.050000
vertex -0.070711 -0.670711 1.050000
vertex -0.083147 -0.655557 1.050000
endloop
endfacet
facet normal 0.000050 0.000000 -1.000000
outer loop
vertex -0.083147 -0.655557 1.050000
vertex -0.092388 -0.638268 1.050000
vertex -0.098079 -0.619509 1.050000
endloop
endfacet
facet normal 0.000000 0.000000 -1.000000
outer loop
vertex -0.098079 -0.619509 1.050000
vertex -0.100000 -0.600000 1.050000
vertex -0.098079 -0.580491 1.050000
endloop
endfacet
facet normal 0.000000 -1.000000 0.000000
outer loop
vertex -0.098079 -0.600000 1.050000
vertex -0.085043 -0.600000 1.050000
vertex 0.085043 -0.600000 1.050000
endloop
endfacet
facet normal 0.000000 0.000000 0.000000
outer loop
vertex -0.098079 -0.619509 1.050000
vertex -0.098079 -0.580491 1.050000
vertex -0.098079 -0.600000 1.050000
endloop
endfacet
facet normal 0.000000 0.000000 -1.000000
outer loop
vertex -0.055557 -0.683147 1.050000
vertex -0.083147 -0.655557 1.050000
vertex -0.098079 -0.619509 1.050000
endloop
endfacet
facet normal 0.000000 0.000000 -1.000000
outer loop
vertex 0.019509 -0.698079 1.050000
vertex -0.019509 -0.698079 1.050000
vertex -0.055557 -0.683147 1.050000
endloop
endfacet
facet normal 0.000006 0.000000 -1.000000
outer loop
vertex 0.083147 -0.655557 1.050000
vertex 0.055557 -0.683147 1.050000
vertex 0.019509 -0.698079 1.050000
endloop
endfacet
facet normal 0.000000 0.000000 0.000000
outer loop
vertex 0.098079 -0.600000 1.050000
vertex 0.098079 -0.580491 1.050000
vertex 0.098079 -0.619509 1.050000
endloop
endfacet
facet normal 0.000000 0.000000 1.000000
outer loop
vertex -0.098079 -0.600000 1.050000
vertex 0.085043 -0.600000 1.050000
vertex 0.094198 -0.600000 1.050000
endloop
endfacet
facet normal 0.000000 0.000000 -1.000000
outer loop
vertex 0.094198 -0.600000 1.050000
vertex 0.098079 -0.600000 1.050000
vertex 0.098079 -0.619509 1.050000
endloop
endfacet
facet normal 0.000000 0.000000 -1.000000
outer loop
vertex 0.098079 -0.619509 1.050000
vertex 0.083147 -0.655557 1.050000
vertex 0.019509 -0.698079 1.050000
endloop
endfacet
facet normal 0.000000 0.000000 -1.000000
outer loop
vertex 0.019509 -0.698079 1.050000
vertex -0.055557 -0.683147 1.050000
vertex -0.098079 -0.619509 1.050000
endloop
endfacet
facet normal 0.000000 0.000000 -1.000000
outer loop
vertex -0.098079 -0.619509 1.050000
vertex -0.098079 -0.600000 1.050000
vertex 0.094198 -0.600000 1.050000
endloop
endfacet
facet normal 0.000000 0.000000 -1.000000
outer loop
vertex 0.094198 -0.600000 1.050000
vertex 0.098079 -0.619509 1.050000
vertex 0.019509 -0.698079 1.050000
endloop
endfacet
facet normal 0.000000 0.000000 -1.000000
outer loop
vertex 0.019509 -0.698079 1.050000
vertex -0.098079 -0.619509 1.050000
vertex 0.094198 -0.600000 1.050000
endloop
endfacet
facet normal 0.000000 0.000000 1.000000
outer loop
vertex 0.369552 -0.753073 1.050000
vertex 0.392314 -0.678036 1.050000
vertex 0.400000 -0.600000 1.050000
endloop
endfacet
facet normal 0.000000 0.531735 -0.846911
outer loop
vertex 0.384628 -0.600000 1.050000
vertex 0.306147 -0.600000 1.050000
vertex 0.100000 -0.600000 1.050000
endloop
endfacet
facet normal 0.000000 0.000000 1.000000
outer loop
vertex 0.369552 -0.753073 1.050000
vertex 0.400000 -0.600000 1.050000
vertex 0.384628 -0.600000 1.050000
endloop
endfacet
facet normal 0.000000 0.000000 1.000000
outer loop
vertex 0.282843 -0.882843 1.050000
vertex 0.332588 -0.822228 1.050000
vertex 0.369552 -0.753073 1.050000
endloop
endfacet
facet normal 0.000000 0.000000 1.000000
outer loop
vertex 0.153073 -0.969552 1.050000
vertex 0.222228 -0.932588 1.050000
vertex 0.282843 -0.882843 1.050000
endloop
endfacet
facet normal 0.000000 0.000000 1.000000
outer loop
vertex 0.000000 -1.000000 1.050000
vertex 0.078036 -0.992314 1.050000
vertex 0.153073 -0.969552 1.050000
endloop
endfacet
facet normal -0.000002 0.000000 1.000000
outer loop
vertex -0.153073 -0.969552 1.050000
vertex -0.078036 -0.992314 1.050000
vertex 0.000000 -1.000000 1.050000
endloop
endfacet
facet normal 0.000000 0.000000 1.000000
outer loop
vertex -0.282843 -0.882843 1.050000
vertex -0.222228 -0.932588 1.050000
vertex -0.153073 -0.969552 1.050000
endloop
endfacet
facet normal -0.000012 0.000000 1.000000
outer loop
vertex -0.369552 -0.753073 1.050000
vertex -0.332588 -0.822228 1.050000
vertex -0.282843 -0.882843 1.050000
endloop
endfacet
facet normal 0.000000 0.000000 1.000000
outer loop
vertex -0.400000 -0.600000 1.050000
vertex -0.392314 -0.678036 1.050000
vertex -0.369552 -0.753073 1.050000
endloop
endfacet
facet normal -0.000001 -0.000000 1.000000
outer loop
vertex -0.098079 -0.619509 1.050000
vertex -0.100000 -0.600000 1.050000
vertex -0.306147 -0.600000 1.050000
endloop
endfacet
facet normal 0.000002 0.000000 1.000000
outer loop
vertex -0.306147 -0.600000 1.050000
vertex -0.400000 -0.600000 1.050000
vertex -0.369552 -0.753073 1.050000
endloop
endfacet
facet normal 0.000002 0.000000 1.000000
outer loop
vertex -0.369552 -0.753073 1.050000
vertex -0.282843 -0.882843 1.050000
vertex -0.153073 -0.969552 1.050000
endloop
endfacet
facet normal 0.000001 0.000000 1.000000
outer loop
vertex -0.153073 -0.969552 1.050000
vertex 0.000000 -1.000000 1.050000
vertex 0.153073 -0.969552 1.050000
endloop
endfacet
facet normal 0.000000 0.000000 1.000000
outer loop
vertex 0.153073 -0.969552 1.050000
vertex 0.282843 -0.882843 1.050000
vertex 0.369552 -0.753073 1.050000
endloop
endfacet
facet normal 0.000000 -0.000000 1.000000
outer loop
vertex 0.369552 -0.753073 1.050000
vertex 0.384628 -0.600000 1.050000
vertex 0.100000 -0.600000 1.050000
endloop
endfacet
facet normal -0.000003 -0.000000 1.000000
outer loop
vertex 0.369552 -0.753073 1.050000
vertex 0.100000 -0.600000 1.050000
vertex 0.098079 -0.619509 1.050000
endloop
endfacet
facet normal 0.000000 0.000000 1.000000
outer loop
vertex -0.153073 -0.969552 1.050000
vertex 0.153073 -0.969552 1.050000
vertex 0.369552 -0.753073 1.050000
endloop
endfacet
facet normal -0.000001 0.000000 1.000000
outer loop
vertex -0.306147 -0.600000 1.050000
vertex -0.369552 -0.753073 1.050000
vertex -0.153073 -0.969552 1.050000
endloop
endfacet
facet normal -0.000002 -0.000000 1.000000
outer loop
vertex -0.092388 -0.638268 1.050000
vertex -0.098079 -0.619509 1.050000
vertex -0.306147 -0.600000 1.050000
endloop
endfacet
facet normal 0.000000 -0.000000 1.000000
outer loop
vertex -0.083147 -0.655557 1.050000
vertex -0.092388 -0.638268 1.050000
vertex -0.306147 -0.600000 1.050000
endloop
endfacet
facet normal 0.000002 -0.000000 1.000000
outer loop
vertex 0.369552 -0.753073 1.050000
vertex 0.098079 -0.619509 1.050000
vertex 0.092388 -0.638268 1.050000
endloop
endfacet
facet normal 0.000001 -0.000000 1.000000
outer loop
vertex 0.369552 -0.753073 1.050000
vertex 0.092388 -0.638268 1.050000
vertex 0.083147 -0.655557 1.050000
endloop
endfacet
facet normal 0.000001 -0.000000 1.000000
outer loop
vertex -0.083147 -0.655557 1.050000
vertex -0.306147 -0.600000 1.050000
vertex -0.153073 -0.969552 1.050000
endloop
endfacet
facet normal -0.000012 -0.000000 1.000000
outer loop
vertex -0.070711 -0.670711 1.050000
vertex -0.083147 -0.655557 1.050000
vertex -0.153073 -0.969552 1.050000
endloop
endfacet
facet normal -0.000000 -0.000001 1.000000
outer loop
vertex -0.153073 -0.969552 1.050000
vertex 0.369552 -0.753073 1.050000
vertex 0.083147 -0.655557 1.050000
endloop
endfacet
facet normal 0.000115 -0.000005 1.000000
outer loop
vertex -0.153073 -0.969552 1.050000
vertex 0.083147 -0.655557 1.050000
vertex 0.070711 -0.670711 1.050000
endloop
endfacet
facet normal 0.000000 -0.000000 1.000000
outer loop
vertex -0.055557 -0.683147 1.050000
vertex -0.070711 -0.670711 1.050000
vertex -0.153073 -0.969552 1.050000
endloop
endfacet
facet normal 0.000000 -0.000000 1.000000
outer loop
vertex -0.038268 -0.692388 1.050000
vertex -0.055557 -0.683147 1.050000
vertex -0.153073 -0.969552 1.050000
endloop
endfacet
facet normal -0.000010 -0.000001 1.000000
outer loop
vertex -0.153073 -0.969552 1.050000
vertex 0.070711 -0.670711 1.050000
vertex 0.055557 -0.683147 1.050000
endloop
endfacet
facet normal -0.000004 -0.000001 1.000000
outer loop
vertex -0.153073 -0.969552 1.050000
vertex 0.055557 -0.683147 1.050000
vertex 0.038268 -0.692388 1.050000
endloop
endfacet
facet normal 0.000000 -0.000000 1.000000
outer loop
vertex -0.019509 -0.698079 1.050000
vertex -0.038268 -0.692388 1.050000
vertex -0.153073 -0.969552 1.050000
endloop
endfacet
facet normal -0.000011 -0.000000 1.000000
outer loop
vertex 0.000000 -0.700000 1.050000
vertex -0.019509 -0.698079 1.050000
vertex -0.153073 -0.969552 1.050000
endloop
endfacet
facet normal 0.000003 -0.000001 1.000000
outer loop
vertex -0.153073 -0.969552 1.050000
vertex 0.038268 -0.692388 1.050000
vertex 0.019509 -0.698079 1.050000
endloop
endfacet
facet normal 0.000012 -0.000000 1.000000
outer loop
vertex 0.019509 -0.698079 1.050000
vertex 0.000000 -0.700000 1.050000
vertex -0.153073 -0.969552 1.050000
endloop
endfacet
facet normal 0.000000 0.000000 1.000000
outer loop
vertex 0.384628 -0.600000 1.050000
vertex 0.400000 -0.600000 1.050000
vertex 0.400000 0.600000 1.050000
endloop
endfacet
facet normal 0.000000 0.000000 1.000000
outer loop
vertex 0.400000 0.600000 1.050000
vertex -0.400000 0.600000 1.050000
vertex -0.400000 -0.600000 1.050000
endloop
endfacet
facet normal 0.000000 1.000000 0.000000
outer loop
vertex 0.098079 -0.600000 1.050000
vertex 0.100000 -0.600000 1.050000
vertex 0.384628 -0.600000 1.050000
endloop
endfacet
facet normal 0.000000 0.000000 1.000000
outer loop
vertex 0.400000 0.600000 1.050000
vertex -0.400000 -0.600000 1.050000
vertex 0.098079 -0.600000 1.050000
endloop
endfacet
facet normal 0.000000 -0.000000 1.000000
outer loop
vertex 0.400000 0.600000 1.050000
vertex 0.098079 -0.600000 1.050000
vertex 0.384628 -0.600000 1.050000
endloop
endfacet
facet normal -1.000000 0.000000 -0.000007
outer loop
vertex 0.400000 0.600000 1.050000
vertex 0.400000 0.600000 1.000000
vertex 0.400000 -0.600000 1.000000
endloop
endfacet
facet normal -1.000000 0.000000 -0.000007
outer loop
vertex 0.400000 -0.600000 1.000000
vertex 0.400000 -0.600000 1.050000
vertex 0.400000 0.600000 1.050000
endloop
endfacet
facet normal 0.000000 1.000000 0.000000
outer loop
vertex -0.500000 1.000000 -1.000000
vertex -0.500000 1.000000 1.000000
vertex 0.500000 1.000000 1.000000
endloop
endfacet
facet normal 0.000000 1.000000 0.000000
outer loop
vertex 0.500000 1.000000 1.000000
vertex 0.500000 1.000000 -1.000000
vertex -0.500000 1.000000 -1.000000
endloop
endfacet
facet normal 1.000000 0.000000 0.000000
outer loop
vertex 0.500000 1.000000 -1.000000
vertex 0.500000 1.000000 1.000000
vertex 0.500000 -1.000000 1.000000
endloop
endfacet
facet normal 1.000000 0.000000 0.000000
outer loop
vertex 0.500000 -1.000000 1.000000
vertex 0.500000 -1.000000 -1.000000
vertex 0.500000 1.000000 -1.000000
endloop
endfacet
facet normal 0.000000 -1.000000 0.000000
outer loop
vertex -0.500000 -1.000000 -1.000000
vertex 0.500000 -1.000000 -1.000000
vertex 0.500000 -1.000000 1.000000
endloop
endfacet
facet normal 0.000000 -1.000000 0.000000
outer loop
vertex 0.000000 -1.000000 1.000000
vertex -0.500000 -1.000000 1.000000
vertex -0.500000 -1.000000 -1.000000
endloop
endfacet
facet normal 0.000000 -1.000000 0.000000
outer loop
vertex 0.500000 -1.000000 1.000000
vertex 0.000000 -1.000000 1.000000
vertex -0.500000 -1.000000 -1.000000
endloop
endfacet
facet normal -1.000000 0.000000 0.000000
outer loop
vertex -0.500000 -1.000000 -1.000000
vertex -0.500000 -1.000000 1.000000
vertex -0.500000 1.000000 1.000000
endloop
endfacet
facet normal -1.000000 0.000000 0.000000
outer loop
vertex -0.500000 1.000000 1.000000
vertex -0.500000 1.000000 -1.000000
vertex -0.500000 -1.000000 -1.000000
endloop
endfacet
facet normal 0.000000 0.000000 -1.000000
outer loop
vertex 0.500000 1.000000 -1.000000
vertex 0.500000 -1.000000 -1.000000
vertex -0.500000 -1.000000 -1.000000
endloop
endfacet
facet normal 0.000000 0.000000 -1.000000
outer loop
vertex -0.500000 -1.000000 -1.000000
vertex -0.500000 1.000000 -1.000000
vertex 0.500000 1.000000 -1.000000
endloop
endfacet
facet normal 0.000000 1.000000 -0.000004
outer loop
vertex 0.400000 0.600000 1.050000
vertex 0.400000 0.600000 1.000000
vertex -0.400000 0.600000 1.000000
endloop
endfacet
facet normal 0.000000 1.000000 0.000000
outer loop
vertex -0.400000 0.600000 1.000000
vertex -0.400000 0.600000 1.050000
vertex 0.400000 0.600000 1.050000
endloop
endfacet
facet normal 0.290285 -0.956940 0.000000
outer loop
vertex 0.078036 -0.992314 1.000000
vertex 0.153073 -0.969552 1.000000
vertex 0.153073 -0.969552 1.050000
endloop
endfacet
facet normal 0.290285 -0.956940 0.000000
outer loop
vertex 0.153073 -0.969552 1.050000
vertex 0.078036 -0.992314 1.050000
vertex 0.078036 -0.992314 1.000000
endloop
endfacet
facet normal 0.881921 -0.471398 0.000000
outer loop
vertex 0.332588 -0.822228 1.000000
vertex 0.369552 -0.753073 1.000000
vertex 0.369552 -0.753073 1.050000
endloop
endfacet
facet normal 0.881921 -0.471397 0.000000
outer loop
vertex 0.369552 -0.753073 1.050000
vertex 0.332588 -0.822228 1.050000
vertex 0.332588 -0.822228 1.000000
endloop
endfacet
facet normal 0.471397 -0.881921 0.000000
outer loop
vertex 0.153073 -0.969552 1.000000
vertex 0.222228 -0.932588 1.000000
vertex 0.222228 -0.932588 1.050000
endloop
endfacet
facet normal 0.471396 -0.881922 0.000000
outer loop
vertex 0.222228 -0.932588 1.050000
vertex 0.153073 -0.969552 1.050000
vertex 0.153073 -0.969552 1.000000
endloop
endfacet
facet normal 0.000000 0.000000 0.000000
outer loop
vertex 0.000000 -1.000000 1.000000
vertex 0.000000 -1.000000 0.950000
vertex 0.000000 -1.000000 1.000000
endloop
endfacet
facet normal 0.098017 -0.995185 0.000000
outer loop
vertex 0.078036 -0.992314 1.000000
vertex 0.078036 -0.992314 1.050000
vertex 0.000000 -1.000000 1.050000
endloop
endfacet
facet normal 0.000000 0.000000 0.000000
outer loop
vertex 0.000000 -1.000000 1.000000
vertex 0.000000 -1.000000 1.000000
vertex 0.078036 -0.992314 1.000000
endloop
endfacet
facet normal 0.098018 -0.995185 -0.000000
outer loop
vertex 0.078036 -0.992314 1.000000
vertex 0.000000 -1.000000 1.050000
vertex 0.000000 -1.000000 1.000000
endloop
endfacet
facet normal 0.773011 -0.634392 0.000000
outer loop
vertex 0.282843 -0.882843 1.000000
vertex 0.332588 -0.822228 1.000000
vertex 0.332588 -0.822228 1.050000
endloop
endfacet
facet normal 0.773011 -0.634393 0.000000
outer loop
vertex 0.332588 -0.822228 1.050000
vertex 0.282843 -0.882843 1.050000
vertex 0.282843 -0.882843 1.000000
endloop
endfacet
facet normal -0.098016 -0.995185 0.000000
outer loop
vertex -0.078036 -0.992314 1.050000
vertex -0.078036 -0.992314 1.000000
vertex 0.000000 -1.000000 1.000000
endloop
endfacet
facet normal 0.000000 0.000000 0.000000
outer loop
vertex 0.000000 -1.000000 1.000000
vertex 0.000000 -1.000000 0.950000
vertex 0.000000 -1.000000 1.000000
endloop
endfacet
facet normal -0.098016 -0.995185 0.000000
outer loop
vertex 0.000000 -1.000000 1.050000
vertex -0.078036 -0.992314 1.050000
vertex 0.000000 -1.000000 1.000000
endloop
endfacet
facet normal 0.000000 0.000000 0.000000
outer loop
vertex 0.000000 -1.000000 1.000000
vertex 0.000000 -1.000000 1.000000
vertex 0.000000 -1.000000 1.050000
endloop
endfacet
facet normal 0.000000 1.000000 -0.000001
outer loop
vertex 0.400000 -0.600000 1.050000
vertex 0.400000 -0.600000 1.000000
vertex -0.400000 -0.600000 1.000000
endloop
endfacet
facet normal 0.000000 1.000000 0.000000
outer loop
vertex -0.400000 -0.600000 1.000000
vertex -0.400000 -0.600000 1.050000
vertex 0.098079 -0.600000 1.050000
endloop
endfacet
facet normal 0.000000 1.000000 0.000000
outer loop
vertex 0.098079 -0.600000 1.050000
vertex 0.100000 -0.600000 1.050000
vertex 0.384628 -0.600000 1.050000
endloop
endfacet
facet normal 0.000000 1.000000 0.000078
outer loop
vertex 0.384628 -0.600000 1.050000
vertex 0.400000 -0.600000 1.050000
vertex -0.400000 -0.600000 1.000000
endloop
endfacet
facet normal 0.000000 1.000000 -0.000004
outer loop
vertex -0.400000 -0.600000 1.000000
vertex 0.098079 -0.600000 1.050000
vertex 0.384628 -0.600000 1.050000
endloop
endfacet
facet normal -0.471397 -0.881921 0.000000
outer loop
vertex -0.222228 -0.932588 1.000000
vertex -0.153073 -0.969552 1.000000
vertex -0.153073 -0.969552 1.050000
endloop
endfacet
facet normal -0.471398 -0.881920 0.000000
outer loop
vertex -0.153073 -0.969552 1.050000
vertex -0.222228 -0.932588 1.050000
vertex -0.222228 -0.932588 1.000000
endloop
endfacet
facet normal 0.000000 0.000000 1.000000
outer loop
vertex -0.500000 1.000000 1.000000
vertex -0.500000 -1.000000 1.000000
vertex 0.500000 -1.000000 1.000000
endloop
endfacet
facet normal 0.000000 0.000000 1.000000
outer loop
vertex 0.500000 -1.000000 1.000000
vertex 0.500000 1.000000 1.000000
vertex -0.500000 1.000000 1.000000
endloop
endfacet
facet normal -0.290285 -0.956940 0.000000
outer loop
vertex -0.153073 -0.969552 1.000000
vertex -0.078036 -0.992314 1.000000
vertex -0.078036 -0.992314 1.050000
endloop
endfacet
facet normal -0.290285 -0.956940 0.000000
outer loop
vertex -0.078036 -0.992314 1.050000
vertex -0.153073 -0.969552 1.050000
vertex -0.153073 -0.969552 1.000000
endloop
endfacet
facet normal -0.995185 -0.098018 0.000000
outer loop
vertex -0.400000 -0.600000 1.000000
vertex -0.392314 -0.678036 1.000000
vertex -0.392314 -0.678036 1.050000
endloop
endfacet
facet normal -0.995185 -0.098016 0.000000
outer loop
vertex -0.392314 -0.678036 1.050000
vertex -0.400000 -0.600000 1.050000
vertex -0.400000 -0.600000 1.000000
endloop
endfacet
facet normal -0.956941 -0.290284 0.000000
outer loop
vertex -0.392314 -0.678036 1.000000
vertex -0.369552 -0.753073 1.000000
vertex -0.369552 -0.753073 1.050000
endloop
endfacet
facet normal -0.956940 -0.290285 0.000000
outer loop
vertex -0.369552 -0.753073 1.050000
vertex -0.392314 -0.678036 1.050000
vertex -0.392314 -0.678036 1.000000
endloop
endfacet
facet normal -0.634392 -0.773011 0.000000
outer loop
vertex -0.282843 -0.882843 1.000000
vertex -0.222228 -0.932588 1.000000
vertex -0.222228 -0.932588 1.050000
endloop
endfacet
facet normal -0.634393 -0.773010 0.000000
outer loop
vertex -0.222228 -0.932588 1.050000
vertex -0.282843 -0.882843 1.050000
vertex -0.282843 -0.882843 1.000000
endloop
endfacet
facet normal 0.995184 -0.098021 0.000007
outer loop
vertex 0.392314 -0.678036 1.000000
vertex 0.400000 -0.600000 1.000000
vertex 0.400000 -0.600000 1.050000
endloop
endfacet
facet normal 0.995185 -0.098017 0.000000
outer loop
vertex 0.400000 -0.600000 1.050000
vertex 0.392314 -0.678036 1.050000
vertex 0.392314 -0.678036 1.000000
endloop
endfacet
facet normal -1.000000 0.000000 0.000000
outer loop
vertex -0.400000 -0.600000 1.000000
vertex -0.400000 -0.600000 1.050000
vertex -0.400000 0.600000 1.050000
endloop
endfacet
facet normal -1.000000 0.000000 0.000000
outer loop
vertex -0.400000 0.600000 1.050000
vertex -0.400000 0.600000 1.000000
vertex -0.400000 -0.600000 1.000000
endloop
endfacet
facet normal 0.956940 -0.290285 0.000000
outer loop
vertex 0.369552 -0.753073 1.000000
vertex 0.392314 -0.678036 1.000000
vertex 0.392314 -0.678036 1.050000
endloop
endfacet
facet normal 0.956941 -0.290283 0.000000
outer loop
vertex 0.392314 -0.678036 1.050000
vertex 0.369552 -0.753073 1.050000
vertex 0.369552 -0.753073 1.000000
endloop
endfacet
facet normal -0.881921 -0.471396 0.000000
outer loop
vertex -0.369552 -0.753073 1.000000
vertex -0.332588 -0.822228 1.000000
vertex -0.332588 -0.822228 1.050000
endloop
endfacet
facet normal -0.881921 -0.471398 0.000000
outer loop
vertex -0.332588 -0.822228 1.050000
vertex -0.369552 -0.753073 1.050000
vertex -0.369552 -0.753073 1.000000
endloop
endfacet
facet normal -0.773011 -0.634393 0.000000
outer loop
vertex -0.332588 -0.822228 1.000000
vertex -0.282843 -0.882843 1.000000
vertex -0.282843 -0.882843 1.050000
endloop
endfacet
facet normal -0.773011 -0.634393 0.000000
outer loop
vertex -0.282843 -0.882843 1.050000
vertex -0.332588 -0.822228 1.050000
vertex -0.332588 -0.822228 1.000000
endloop
endfacet
facet normal 0.634392 -0.773011 0.000000
outer loop
vertex 0.222228 -0.932588 1.000000
vertex 0.282843 -0.882843 1.000000
vertex 0.282843 -0.882843 1.050000
endloop
endfacet
facet normal 0.634394 -0.773010 0.000000
outer loop
vertex 0.282843 -0.882843 1.050000
vertex 0.222228 -0.932588 1.050000
vertex 0.222228 -0.932588 1.000000
endloop
endfacet
facet normal 1.000000 0.000000 0.000007
outer loop
vertex 0.400000 0.600000 1.000000
vertex 0.400000 0.600000 1.050000
vertex 0.400000 -0.600000 1.050000
endloop
endfacet
facet normal 1.000000 0.000000 0.000007
outer loop
vertex 0.400000 -0.600000 1.050000
vertex 0.400000 -0.600000 1.000000
vertex 0.400000 0.600000 1.000000
endloop
endfacet
facet normal 0.000000 0.000000 -1.000000
outer loop
vertex 0.092388 -0.561732 1.050000
vertex 0.098079 -0.580491 1.050000
vertex 0.085043 -0.600000 1.050000
endloop
endfacet
facet normal 0.000002 0.000001 -1.000000
outer loop
vertex 0.085043 -0.600000 1.050000
vertex -0.085043 -0.600000 1.050000
vertex -0.019509 -0.501921 1.050000
endloop
endfacet
facet normal 0.000000 0.000000 -1.000000
outer loop
vertex -0.019509 -0.501921 1.050000
vertex 0.000000 -0.500000 1.050000
vertex 0.019509 -0.501922 1.050000
endloop
endfacet
facet normal 0.000025 0.000000 -1.000000
outer loop
vertex 0.019509 -0.501922 1.050000
vertex 0.038268 -0.507612 1.050000
vertex 0.055557 -0.516853 1.050000
endloop
endfacet
facet normal 0.000000 0.000000 -1.000000
outer loop
vertex 0.055557 -0.516853 1.050000
vertex 0.070711 -0.529289 1.050000
vertex 0.083147 -0.544443 1.050000
endloop
endfacet
facet normal 0.000000 0.000000 -1.000000
outer loop
vertex 0.083147 -0.544443 1.050000
vertex 0.092388 -0.561732 1.050000
vertex 0.085043 -0.600000 1.050000
endloop
endfacet
facet normal 0.000002 0.000000 -1.000000
outer loop
vertex 0.085043 -0.600000 1.050000
vertex -0.019509 -0.501921 1.050000
vertex 0.019509 -0.501922 1.050000
endloop
endfacet
facet normal 0.000000 0.000000 -1.000000
outer loop
vertex 0.019509 -0.501922 1.050000
vertex 0.055557 -0.516853 1.050000
vertex 0.083147 -0.544443 1.050000
endloop
endfacet
facet normal -0.000002 0.000000 -1.000000
outer loop
vertex 0.085043 -0.600000 1.050000
vertex 0.019509 -0.501922 1.050000
vertex 0.083147 -0.544443 1.050000
endloop
endfacet
facet normal -0.000010 0.000002 -1.000000
outer loop
vertex -0.038268 -0.507612 1.050000
vertex -0.019509 -0.501921 1.050000
vertex -0.085043 -0.600000 1.050000
endloop
endfacet
facet normal -0.000029 0.000000 -1.000000
outer loop
vertex -0.085043 -0.600000 1.050000
vertex -0.098079 -0.600000 1.050000
vertex -0.098079 -0.580491 1.050000
endloop
endfacet
facet normal 0.000050 0.000000 -1.000000
outer loop
vertex -0.098079 -0.580491 1.050000
vertex -0.092388 -0.561732 1.050000
vertex -0.083147 -0.544443 1.050000
endloop
endfacet
facet normal 0.000000 0.000000 -1.000000
outer loop
vertex -0.083147 -0.544443 1.050000
vertex -0.070711 -0.529289 1.050000
vertex -0.055557 -0.516853 1.050000
endloop
endfacet
facet normal 0.000013 0.000002 -1.000000
outer loop
vertex -0.055557 -0.516853 1.050000
vertex -0.038268 -0.507612 1.050000
vertex -0.085043 -0.600000 1.050000
endloop
endfacet
facet normal -0.000010 0.000002 -1.000000
outer loop
vertex -0.085043 -0.600000 1.050000
vertex -0.098079 -0.580491 1.050000
vertex -0.083147 -0.544443 1.050000
endloop
endfacet
facet normal -0.000010 0.000002 -1.000000
outer loop
vertex -0.085043 -0.600000 1.050000
vertex -0.083147 -0.544443 1.050000
vertex -0.055557 -0.516853 1.050000
endloop
endfacet
facet normal 0.000000 0.000000 -1.000000
outer loop
vertex 0.098079 -0.580491 1.050000
vertex 0.098079 -0.600000 1.050000
vertex 0.094198 -0.600000 1.050000
endloop
endfacet
facet normal 0.000000 0.000000 -1.000000
outer loop
vertex 0.098079 -0.580491 1.050000
vertex 0.094198 -0.600000 1.050000
vertex 0.085043 -0.600000 1.050000
endloop
endfacet
endsolid Exported from Blender-2.79 (sub 0)
