solid Exported from Blender-2.79 (sub 0)
facet normal 0.000000 0.000000 -1.000000
outer loop
vertex 0.500000 -1.499999 0.000000
vertex -0.500000 -1.499999 0.000000
vertex -0.500000 1.499999 0.000000
endloop
endfacet
facet normal 0.000000 0.000000 -1.000000
outer loop
vertex -0.500000 1.499999 0.000000
vertex 0.500000 1.499999 0.000000
vertex 0.500000 -1.499999 0.000000
endloop
endfacet
facet normal 0.000000 0.000000 1.000000
outer loop
vertex 0.499999 -1.500000 3.000000
vertex 0.499999 -1.400000 3.000000
vertex -0.500000 -1.399999 3.000000
endloop
endfacet
facet normal 0.000000 0.000000 1.000000
outer loop
vertex -0.500000 -1.399999 3.000000
vertex -0.500000 -1.499998 3.000000
vertex 0.499999 -1.500000 3.000000
endloop
endfacet
facet normal 0.000000 -1.000000 -0.000000
outer loop
vertex -0.500000 -1.499999 0.000000
vertex 0.500000 -1.499999 0.000000
vertex 0.499999 -1.500000 3.000000
endloop
endfacet
facet normal -0.000003 -1.000000 -0.000003
outer loop
vertex 0.499999 -1.500000 3.000000
vertex 0.150000 -1.499999 2.500000
vertex 0.147118 -1.499999 2.470737
endloop
endfacet
facet normal -0.000051 -1.000000 0.000032
outer loop
vertex 0.499999 -1.500000 3.000000
vertex 0.147118 -1.499999 2.470737
vertex 0.138582 -1.500000 2.442597
endloop
endfacet
facet normal -0.000001 -1.000000 0.000000
outer loop
vertex -0.150000 -1.499999 2.500000
vertex -0.500000 -1.499998 3.000000
vertex -0.500000 -1.499999 0.000000
endloop
endfacet
facet normal 0.000001 -1.000000 0.000000
outer loop
vertex -0.147118 -1.499999 2.470737
vertex -0.150000 -1.499999 2.500000
vertex -0.500000 -1.499999 0.000000
endloop
endfacet
facet normal -0.000001 -1.000000 0.000000
outer loop
vertex -0.500000 -1.499999 0.000000
vertex 0.499999 -1.500000 3.000000
vertex 0.138582 -1.500000 2.442597
endloop
endfacet
facet normal 0.000001 -1.000000 -0.000007
outer loop
vertex -0.500000 -1.499999 0.000000
vertex 0.138582 -1.500000 2.442597
vertex 0.124720 -1.500000 2.416665
endloop
endfacet
facet normal -0.000019 -1.000000 0.000004
outer loop
vertex -0.138582 -1.499999 2.442597
vertex -0.147118 -1.499999 2.470737
vertex -0.500000 -1.499999 0.000000
endloop
endfacet
facet normal 0.000000 -1.000000 0.000000
outer loop
vertex -0.124720 -1.499999 2.416665
vertex -0.138582 -1.499999 2.442597
vertex -0.500000 -1.499999 0.000000
endloop
endfacet
facet normal 0.000000 -1.000000 0.000004
outer loop
vertex -0.500000 -1.499999 0.000000
vertex 0.124720 -1.500000 2.416665
vertex 0.106066 -1.500000 2.393934
endloop
endfacet
facet normal 0.000000 -1.000000 -0.000001
outer loop
vertex -0.500000 -1.499999 0.000000
vertex 0.106066 -1.500000 2.393934
vertex 0.083336 -1.500000 2.375279
endloop
endfacet
facet normal 0.000000 -1.000000 0.000002
outer loop
vertex -0.106066 -1.499999 2.393934
vertex -0.124720 -1.499999 2.416665
vertex -0.500000 -1.499999 0.000000
endloop
endfacet
facet normal 0.000000 -1.000000 0.000000
outer loop
vertex -0.083336 -1.499999 2.375279
vertex -0.106066 -1.499999 2.393934
vertex -0.500000 -1.499999 0.000000
endloop
endfacet
facet normal 0.000000 -1.000000 -0.000001
outer loop
vertex -0.500000 -1.499999 0.000000
vertex 0.083336 -1.500000 2.375279
vertex 0.057403 -1.500000 2.361418
endloop
endfacet
facet normal 0.000000 -1.000000 0.000000
outer loop
vertex -0.500000 -1.499999 0.000000
vertex 0.057403 -1.500000 2.361418
vertex 0.029264 -1.500000 2.352882
endloop
endfacet
facet normal 0.000000 -1.000000 0.000000
outer loop
vertex -0.057402 -1.499999 2.361418
vertex -0.083336 -1.499999 2.375279
vertex -0.500000 -1.499999 0.000000
endloop
endfacet
facet normal 0.000000 -1.000000 0.000000
outer loop
vertex -0.029264 -1.499999 2.352882
vertex -0.057402 -1.499999 2.361418
vertex -0.500000 -1.499999 0.000000
endloop
endfacet
facet normal 0.000000 -1.000000 -0.000000
outer loop
vertex -0.500000 -1.499999 0.000000
vertex 0.029264 -1.500000 2.352882
vertex 0.000000 -1.500000 2.350000
endloop
endfacet
facet normal -0.000016 -1.000000 0.000002
outer loop
vertex 0.000000 -1.500000 2.350000
vertex -0.029264 -1.499999 2.352882
vertex -0.500000 -1.499999 0.000000
endloop
endfacet
facet normal -1.000000 0.000000 -0.000000
outer loop
vertex -0.500000 -1.499999 0.000000
vertex -0.500000 -1.499998 3.000000
vertex -0.500000 -1.399999 3.000000
endloop
endfacet
facet normal -1.000000 0.000000 -0.000000
outer loop
vertex -0.500000 -1.499999 0.000000
vertex -0.500000 -1.399999 3.000000
vertex -0.500000 -1.399999 0.075000
endloop
endfacet
facet normal -1.000000 0.000000 0.000000
outer loop
vertex -0.500000 1.400000 3.000000
vertex -0.500000 1.500000 3.000000
vertex -0.500000 1.499999 0.000000
endloop
endfacet
facet normal -1.000000 0.000000 -0.000000
outer loop
vertex -0.500000 -1.499999 0.000000
vertex -0.500000 -1.399999 0.075000
vertex -0.500000 1.399999 0.075000
endloop
endfacet
facet normal -1.000000 0.000000 0.000000
outer loop
vertex -0.500000 1.399999 0.075000
vertex -0.500000 1.400000 3.000000
vertex -0.500000 1.499999 0.000000
endloop
endfacet
facet normal -1.000000 0.000000 -0.000000
outer loop
vertex -0.500000 -1.499999 0.000000
vertex -0.500000 1.399999 0.075000
vertex -0.500000 1.499999 0.000000
endloop
endfacet
facet normal 0.000001 1.000000 -0.000000
outer loop
vertex 0.500000 1.499999 0.000000
vertex -0.500000 1.499999 0.000000
vertex -0.500000 1.500000 3.000000
endloop
endfacet
facet normal 0.000000 1.000000 0.000010
outer loop
vertex -0.500000 1.500000 3.000000
vertex -0.150000 1.500000 2.500000
vertex -0.147118 1.500000 2.470737
endloop
endfacet
facet normal 0.000001 1.000000 -0.000004
outer loop
vertex -0.500000 1.500000 3.000000
vertex -0.147118 1.500000 2.470737
vertex -0.138582 1.500000 2.442598
endloop
endfacet
facet normal 0.000001 1.000000 -0.000000
outer loop
vertex 0.150000 1.499999 2.500000
vertex 0.500000 1.499999 3.000000
vertex 0.500000 1.499999 0.000000
endloop
endfacet
facet normal 0.000001 1.000000 0.000000
outer loop
vertex 0.147118 1.499999 2.470737
vertex 0.150000 1.499999 2.500000
vertex 0.500000 1.499999 0.000000
endloop
endfacet
facet normal -0.000000 1.000000 -0.000000
outer loop
vertex 0.500000 1.499999 0.000000
vertex -0.500000 1.500000 3.000000
vertex -0.138582 1.500000 2.442598
endloop
endfacet
facet normal -0.000001 1.000000 -0.000008
outer loop
vertex 0.500000 1.499999 0.000000
vertex -0.138582 1.500000 2.442598
vertex -0.124720 1.500000 2.416665
endloop
endfacet
facet normal 0.000000 1.000000 0.000000
outer loop
vertex 0.138582 1.499999 2.442598
vertex 0.147118 1.499999 2.470737
vertex 0.500000 1.499999 0.000000
endloop
endfacet
facet normal 0.000000 1.000000 -0.000003
outer loop
vertex 0.124720 1.499999 2.416665
vertex 0.138582 1.499999 2.442598
vertex 0.500000 1.499999 0.000000
endloop
endfacet
facet normal -0.000001 1.000000 -0.000004
outer loop
vertex 0.500000 1.499999 0.000000
vertex -0.124720 1.500000 2.416665
vertex -0.106066 1.500000 2.393934
endloop
endfacet
facet normal -0.000000 1.000000 0.000004
outer loop
vertex 0.500000 1.499999 0.000000
vertex -0.106066 1.500000 2.393934
vertex -0.083336 1.500000 2.375280
endloop
endfacet
facet normal 0.000000 1.000000 0.000000
outer loop
vertex 0.106066 1.499999 2.393934
vertex 0.124720 1.499999 2.416665
vertex 0.500000 1.499999 0.000000
endloop
endfacet
facet normal 0.000000 1.000000 0.000002
outer loop
vertex 0.083336 1.499999 2.375280
vertex 0.106066 1.499999 2.393934
vertex 0.500000 1.499999 0.000000
endloop
endfacet
facet normal -0.000000 1.000000 -0.000003
outer loop
vertex 0.500000 1.499999 0.000000
vertex -0.083336 1.500000 2.375280
vertex -0.057402 1.500000 2.361418
endloop
endfacet
facet normal 0.000009 1.000000 0.000002
outer loop
vertex 0.500000 1.499999 0.000000
vertex -0.057402 1.500000 2.361418
vertex -0.029264 1.499999 2.352882
endloop
endfacet
facet normal 0.000000 1.000000 0.000000
outer loop
vertex 0.057403 1.499999 2.361418
vertex 0.083336 1.499999 2.375280
vertex 0.500000 1.499999 0.000000
endloop
endfacet
facet normal 0.000000 1.000000 -0.000002
outer loop
vertex 0.029264 1.499999 2.352882
vertex 0.057403 1.499999 2.361418
vertex 0.500000 1.499999 0.000000
endloop
endfacet
facet normal 0.000004 1.000000 0.000000
outer loop
vertex 0.500000 1.499999 0.000000
vertex -0.029264 1.499999 2.352882
vertex 0.000000 1.499999 2.350000
endloop
endfacet
facet normal 0.000000 1.000000 0.000002
outer loop
vertex 0.000000 1.499999 2.350000
vertex 0.029264 1.499999 2.352882
vertex 0.500000 1.499999 0.000000
endloop
endfacet
facet normal 1.000000 0.000000 0.000000
outer loop
vertex 0.499999 -1.400000 3.000000
vertex 0.499999 -1.500000 3.000000
vertex 0.500000 -1.499999 0.000000
endloop
endfacet
facet normal 1.000000 0.000000 0.000000
outer loop
vertex 0.500000 1.499999 0.000000
vertex 0.500000 1.499999 3.000000
vertex 0.500000 1.399999 3.000000
endloop
endfacet
facet normal 1.000000 0.000000 0.000000
outer loop
vertex 0.500000 1.499999 0.000000
vertex 0.500000 1.399999 3.000000
vertex 0.500000 1.399999 0.075000
endloop
endfacet
facet normal 1.000000 0.000000 0.000000
outer loop
vertex 0.500000 -1.399999 0.075000
vertex 0.499999 -1.400000 3.000000
vertex 0.500000 -1.499999 0.000000
endloop
endfacet
facet normal 1.000000 -0.000000 -0.000000
outer loop
vertex 0.500000 1.499999 0.000000
vertex 0.500000 1.399999 0.075000
vertex 0.500000 -1.399999 0.075000
endloop
endfacet
facet normal 1.000000 -0.000000 0.000000
outer loop
vertex 0.500000 -1.499999 0.000000
vertex 0.500000 1.499999 0.000000
vertex 0.500000 -1.399999 0.075000
endloop
endfacet
facet normal 0.000000 1.000000 0.000000
outer loop
vertex 0.499999 -1.400000 3.000000
vertex 0.500000 -1.399999 0.075000
vertex -0.500000 -1.399999 0.075000
endloop
endfacet
facet normal 0.000001 1.000000 -0.000000
outer loop
vertex -0.500000 -1.399999 0.075000
vertex -0.500000 -1.399999 3.000000
vertex -0.150000 -1.399999 2.500000
endloop
endfacet
facet normal -0.000000 1.000000 0.000001
outer loop
vertex -0.500000 -1.399999 0.075000
vertex -0.150000 -1.399999 2.500000
vertex -0.147118 -1.399999 2.470737
endloop
endfacet
facet normal 0.000001 1.000000 0.000007
outer loop
vertex 0.147118 -1.399999 2.470737
vertex 0.150000 -1.399999 2.500000
vertex 0.499999 -1.400000 3.000000
endloop
endfacet
facet normal 0.000001 1.000000 0.000000
outer loop
vertex 0.138582 -1.399999 2.442597
vertex 0.147118 -1.399999 2.470737
vertex 0.499999 -1.400000 3.000000
endloop
endfacet
facet normal -0.000000 1.000000 -0.000001
outer loop
vertex -0.500000 -1.399999 0.075000
vertex -0.147118 -1.399999 2.470737
vertex -0.138582 -1.399999 2.442597
endloop
endfacet
facet normal -0.000000 1.000000 0.000001
outer loop
vertex -0.500000 -1.399999 0.075000
vertex -0.138582 -1.399999 2.442597
vertex -0.124720 -1.399999 2.416665
endloop
endfacet
facet normal 0.000001 1.000000 0.000000
outer loop
vertex 0.138582 -1.399999 2.442597
vertex 0.499999 -1.400000 3.000000
vertex -0.500000 -1.399999 0.075000
endloop
endfacet
facet normal -0.000000 1.000000 0.000000
outer loop
vertex 0.124720 -1.399999 2.416665
vertex 0.138582 -1.399999 2.442597
vertex -0.500000 -1.399999 0.075000
endloop
endfacet
facet normal -0.000000 1.000000 0.000000
outer loop
vertex -0.500000 -1.399999 0.075000
vertex -0.124720 -1.399999 2.416665
vertex -0.106066 -1.399999 2.393934
endloop
endfacet
facet normal -0.000000 1.000000 -0.000001
outer loop
vertex -0.500000 -1.399999 0.075000
vertex -0.106066 -1.399999 2.393934
vertex -0.083336 -1.399999 2.375280
endloop
endfacet
facet normal 0.000028 1.000000 -0.000012
outer loop
vertex 0.106066 -1.399999 2.393934
vertex 0.124720 -1.399999 2.416665
vertex -0.500000 -1.399999 0.075000
endloop
endfacet
facet normal 0.000000 1.000000 0.000000
outer loop
vertex 0.083336 -1.399999 2.375279
vertex 0.106066 -1.399999 2.393934
vertex -0.500000 -1.399999 0.075000
endloop
endfacet
facet normal -0.000000 1.000000 -0.000001
outer loop
vertex -0.500000 -1.399999 0.075000
vertex -0.083336 -1.399999 2.375280
vertex -0.057402 -1.399999 2.361418
endloop
endfacet
facet normal -0.000000 1.000000 0.000001
outer loop
vertex -0.500000 -1.399999 0.075000
vertex -0.057402 -1.399999 2.361418
vertex -0.029264 -1.399999 2.352882
endloop
endfacet
facet normal 0.000000 1.000000 0.000000
outer loop
vertex 0.057403 -1.399999 2.361418
vertex 0.083336 -1.399999 2.375279
vertex -0.500000 -1.399999 0.075000
endloop
endfacet
facet normal 0.000000 1.000000 0.000000
outer loop
vertex 0.029264 -1.399999 2.352882
vertex 0.057403 -1.399999 2.361418
vertex -0.500000 -1.399999 0.075000
endloop
endfacet
facet normal -0.000000 1.000000 0.000001
outer loop
vertex -0.500000 -1.399999 0.075000
vertex -0.029264 -1.399999 2.352882
vertex 0.000000 -1.399999 2.350000
endloop
endfacet
facet normal 0.000000 1.000000 -0.000001
outer loop
vertex -0.500000 -1.399999 0.075000
vertex 0.000000 -1.399999 2.350000
vertex 0.029264 -1.399999 2.352882
endloop
endfacet
facet normal -0.000000 0.000000 1.000000
outer loop
vertex 0.500000 1.399999 0.075000
vertex -0.500000 1.399999 0.075000
vertex -0.500000 -1.399999 0.075000
endloop
endfacet
facet normal 0.000000 0.000000 1.000000
outer loop
vertex -0.500000 -1.399999 0.075000
vertex 0.500000 -1.399999 0.075000
vertex 0.500000 1.399999 0.075000
endloop
endfacet
facet normal 0.000000 0.000000 1.000000
outer loop
vertex -0.500000 1.400000 3.000000
vertex 0.500000 1.399999 3.000000
vertex 0.500000 1.499999 3.000000
endloop
endfacet
facet normal 0.000000 0.000000 1.000000
outer loop
vertex 0.500000 1.499999 3.000000
vertex -0.500000 1.500000 3.000000
vertex -0.500000 1.400000 3.000000
endloop
endfacet
facet normal -0.000000 -1.000000 0.000000
outer loop
vertex -0.500000 1.400000 3.000000
vertex -0.500000 1.399999 0.075000
vertex 0.500000 1.399999 0.075000
endloop
endfacet
facet normal -0.000000 -1.000000 0.000000
outer loop
vertex 0.500000 1.399999 0.075000
vertex 0.500000 1.399999 3.000000
vertex 0.150000 1.399999 2.500000
endloop
endfacet
facet normal -0.000001 -1.000000 0.000001
outer loop
vertex 0.500000 1.399999 0.075000
vertex 0.150000 1.399999 2.500000
vertex 0.147118 1.399999 2.470737
endloop
endfacet
facet normal -0.000001 -1.000000 0.000000
outer loop
vertex -0.147118 1.399999 2.470737
vertex -0.150000 1.399999 2.500000
vertex -0.500000 1.400000 3.000000
endloop
endfacet
facet normal -0.000001 -1.000000 0.000000
outer loop
vertex -0.138582 1.399999 2.442598
vertex -0.147118 1.399999 2.470737
vertex -0.500000 1.400000 3.000000
endloop
endfacet
facet normal -0.000000 -1.000000 -0.000001
outer loop
vertex 0.500000 1.399999 0.075000
vertex 0.147118 1.399999 2.470737
vertex 0.138582 1.399999 2.442598
endloop
endfacet
facet normal -0.000000 -1.000000 0.000001
outer loop
vertex 0.500000 1.399999 0.075000
vertex 0.138582 1.399999 2.442598
vertex 0.124720 1.399999 2.416665
endloop
endfacet
facet normal -0.000001 -1.000000 0.000000
outer loop
vertex -0.138582 1.399999 2.442598
vertex -0.500000 1.400000 3.000000
vertex 0.500000 1.399999 0.075000
endloop
endfacet
facet normal 0.000001 -1.000000 0.000007
outer loop
vertex -0.124720 1.399999 2.416665
vertex -0.138582 1.399999 2.442598
vertex 0.500000 1.399999 0.075000
endloop
endfacet
facet normal -0.000000 -1.000000 -0.000000
outer loop
vertex 0.500000 1.399999 0.075000
vertex 0.124720 1.399999 2.416665
vertex 0.106066 1.399999 2.393934
endloop
endfacet
facet normal -0.000000 -1.000000 -0.000001
outer loop
vertex 0.500000 1.399999 0.075000
vertex 0.106066 1.399999 2.393934
vertex 0.083336 1.399999 2.375280
endloop
endfacet
facet normal 0.000000 -1.000000 0.000000
outer loop
vertex -0.106066 1.399999 2.393934
vertex -0.124720 1.399999 2.416665
vertex 0.500000 1.399999 0.075000
endloop
endfacet
facet normal 0.000000 -1.000000 0.000000
outer loop
vertex -0.083336 1.399999 2.375280
vertex -0.106066 1.399999 2.393934
vertex 0.500000 1.399999 0.075000
endloop
endfacet
facet normal -0.000000 -1.000000 0.000002
outer loop
vertex 0.500000 1.399999 0.075000
vertex 0.083336 1.399999 2.375280
vertex 0.057403 1.399999 2.361418
endloop
endfacet
facet normal -0.000000 -1.000000 -0.000001
outer loop
vertex 0.500000 1.399999 0.075000
vertex 0.057403 1.399999 2.361418
vertex 0.029264 1.399999 2.352882
endloop
endfacet
facet normal 0.000000 -1.000000 0.000000
outer loop
vertex -0.057402 1.399999 2.361418
vertex -0.083336 1.399999 2.375280
vertex 0.500000 1.399999 0.075000
endloop
endfacet
facet normal 0.000000 -1.000000 0.000002
outer loop
vertex -0.029264 1.399999 2.352882
vertex -0.057402 1.399999 2.361418
vertex 0.500000 1.399999 0.075000
endloop
endfacet
facet normal -0.000000 -1.000000 -0.000000
outer loop
vertex 0.500000 1.399999 0.075000
vertex 0.029264 1.399999 2.352882
vertex 0.000000 1.399999 2.350000
endloop
endfacet
facet normal 0.000000 -1.000000 -0.000000
outer loop
vertex 0.500000 1.399999 0.075000
vertex 0.000000 1.399999 2.350000
vertex -0.029264 1.399999 2.352882
endloop
endfacet
facet normal 0.098006 0.000000 0.995186
outer loop
vertex -0.029264 1.499999 2.352882
vertex -0.029264 1.399999 2.352882
vertex 0.000000 1.399999 2.350000
endloop
endfacet
facet normal 0.098028 0.000000 0.995184
outer loop
vertex 0.000000 1.399999 2.350000
vertex 0.000000 1.499999 2.350000
vertex -0.029264 1.499999 2.352882
endloop
endfacet
facet normal 0.098009 0.000000 0.995186
outer loop
vertex -0.029264 -1.399999 2.352882
vertex -0.029264 -1.499999 2.352882
vertex 0.000000 -1.500000 2.350000
endloop
endfacet
facet normal 0.098006 0.000000 0.995186
outer loop
vertex 0.000000 -1.500000 2.350000
vertex 0.000000 -1.399999 2.350000
vertex -0.029264 -1.399999 2.352882
endloop
endfacet
facet normal 0.634398 0.000000 0.773006
outer loop
vertex -0.106066 1.500000 2.393934
vertex -0.106066 1.399999 2.393934
vertex -0.083336 1.399999 2.375280
endloop
endfacet
facet normal 0.634393 0.000000 0.773010
outer loop
vertex -0.083336 1.399999 2.375280
vertex -0.083336 1.500000 2.375280
vertex -0.106066 1.500000 2.393934
endloop
endfacet
facet normal 0.634405 -0.000002 0.773001
outer loop
vertex -0.106066 -1.399999 2.393934
vertex -0.106066 -1.499999 2.393934
vertex -0.083336 -1.499999 2.375279
endloop
endfacet
facet normal 0.634399 -0.000002 0.773005
outer loop
vertex -0.083336 -1.499999 2.375279
vertex -0.083336 -1.399999 2.375280
vertex -0.106066 -1.399999 2.393934
endloop
endfacet
facet normal 0.471391 0.000000 0.881924
outer loop
vertex -0.083336 1.500000 2.375280
vertex -0.083336 1.399999 2.375280
vertex -0.057402 1.399999 2.361418
endloop
endfacet
facet normal 0.471401 0.000000 0.881919
outer loop
vertex -0.057402 1.399999 2.361418
vertex -0.057402 1.500000 2.361418
vertex -0.083336 1.500000 2.375280
endloop
endfacet
facet normal 0.471384 -0.000002 0.881928
outer loop
vertex -0.083336 -1.399999 2.375280
vertex -0.083336 -1.499999 2.375279
vertex -0.057402 -1.499999 2.361418
endloop
endfacet
facet normal 0.471400 0.000000 0.881919
outer loop
vertex -0.057402 -1.499999 2.361418
vertex -0.057402 -1.399999 2.361418
vertex -0.083336 -1.399999 2.375280
endloop
endfacet
facet normal -0.098006 0.000002 -0.995186
outer loop
vertex 0.029264 1.499999 2.647118
vertex 0.029264 1.399999 2.647118
vertex 0.000000 1.399999 2.650000
endloop
endfacet
facet normal -0.098006 0.000000 -0.995186
outer loop
vertex 0.000000 1.399999 2.650000
vertex 0.000000 1.499999 2.650000
vertex 0.029264 1.499999 2.647118
endloop
endfacet
facet normal -0.098026 0.000000 -0.995184
outer loop
vertex 0.029264 -1.399999 2.647118
vertex 0.029264 -1.499999 2.647118
vertex 0.000000 -1.499999 2.650000
endloop
endfacet
facet normal -0.098026 0.000000 -0.995184
outer loop
vertex 0.000000 -1.499999 2.650000
vertex 0.000000 -1.399999 2.650000
vertex 0.029264 -1.399999 2.647118
endloop
endfacet
facet normal -0.290288 0.000000 0.956939
outer loop
vertex 0.029264 1.499999 2.352882
vertex 0.029264 1.399999 2.352882
vertex 0.057403 1.399999 2.361418
endloop
endfacet
facet normal -0.290280 0.000000 0.956942
outer loop
vertex 0.057403 1.399999 2.361418
vertex 0.057403 1.499999 2.361418
vertex 0.029264 1.499999 2.352882
endloop
endfacet
facet normal -0.290278 -0.000000 0.956942
outer loop
vertex 0.029264 -1.399999 2.352882
vertex 0.029264 -1.500000 2.352882
vertex 0.057403 -1.500000 2.361418
endloop
endfacet
facet normal -0.290305 -0.000002 0.956934
outer loop
vertex 0.057403 -1.500000 2.361418
vertex 0.057403 -1.399999 2.361418
vertex 0.029264 -1.399999 2.352882
endloop
endfacet
facet normal -0.098026 0.000000 0.995184
outer loop
vertex 0.000000 1.499999 2.350000
vertex 0.000000 1.399999 2.350000
vertex 0.029264 1.399999 2.352882
endloop
endfacet
facet normal -0.098006 0.000000 0.995186
outer loop
vertex 0.029264 1.399999 2.352882
vertex 0.029264 1.499999 2.352882
vertex 0.000000 1.499999 2.350000
endloop
endfacet
facet normal -0.098006 0.000000 0.995186
outer loop
vertex 0.000000 -1.399999 2.350000
vertex 0.000000 -1.500000 2.350000
vertex 0.029264 -1.500000 2.352882
endloop
endfacet
facet normal -0.098016 -0.000000 0.995185
outer loop
vertex 0.029264 -1.500000 2.352882
vertex 0.029264 -1.399999 2.352882
vertex 0.000000 -1.399999 2.350000
endloop
endfacet
facet normal -0.634387 0.000000 0.773015
outer loop
vertex 0.083336 1.499999 2.375280
vertex 0.083336 1.399999 2.375280
vertex 0.106066 1.399999 2.393934
endloop
endfacet
facet normal -0.634401 0.000002 0.773004
outer loop
vertex 0.106066 1.399999 2.393934
vertex 0.106066 1.499999 2.393934
vertex 0.083336 1.499999 2.375280
endloop
endfacet
facet normal -0.634404 0.000000 0.773001
outer loop
vertex 0.083336 -1.399999 2.375279
vertex 0.083336 -1.500000 2.375279
vertex 0.106066 -1.500000 2.393934
endloop
endfacet
facet normal -0.634391 0.000000 0.773012
outer loop
vertex 0.106066 -1.500000 2.393934
vertex 0.106066 -1.399999 2.393934
vertex 0.083336 -1.399999 2.375279
endloop
endfacet
facet normal -0.995185 -0.000000 -0.098016
outer loop
vertex 0.150000 1.499999 2.500000
vertex 0.150000 1.399999 2.500000
vertex 0.147118 1.399999 2.529263
endloop
endfacet
facet normal -0.995185 0.000000 -0.098016
outer loop
vertex 0.147118 1.399999 2.529263
vertex 0.147118 1.499999 2.529263
vertex 0.150000 1.499999 2.500000
endloop
endfacet
facet normal -0.995185 0.000000 -0.098016
outer loop
vertex 0.150000 -1.399999 2.500000
vertex 0.150000 -1.499999 2.500000
vertex 0.147118 -1.499999 2.529263
endloop
endfacet
facet normal -0.995185 0.000000 -0.098016
outer loop
vertex 0.147118 -1.499999 2.529263
vertex 0.147118 -1.399999 2.529263
vertex 0.150000 -1.399999 2.500000
endloop
endfacet
facet normal 0.995185 0.000000 -0.098016
outer loop
vertex -0.147118 1.500000 2.529264
vertex -0.147118 1.399999 2.529264
vertex -0.150000 1.399999 2.500000
endloop
endfacet
facet normal 0.995185 0.000000 -0.098018
outer loop
vertex -0.150000 1.399999 2.500000
vertex -0.150000 1.500000 2.500000
vertex -0.147118 1.500000 2.529264
endloop
endfacet
facet normal 0.995185 -0.000000 -0.098018
outer loop
vertex -0.147118 -1.399999 2.529263
vertex -0.147118 -1.499999 2.529264
vertex -0.150000 -1.499999 2.500000
endloop
endfacet
facet normal 0.995185 0.000000 -0.098018
outer loop
vertex -0.150000 -1.499999 2.500000
vertex -0.150000 -1.399999 2.500000
vertex -0.147118 -1.399999 2.529263
endloop
endfacet
facet normal -0.471401 0.000000 -0.881919
outer loop
vertex 0.083336 1.499999 2.624721
vertex 0.083336 1.399999 2.624721
vertex 0.057403 1.399999 2.638582
endloop
endfacet
facet normal -0.471401 0.000002 -0.881919
outer loop
vertex 0.057403 1.399999 2.638582
vertex 0.057403 1.499999 2.638582
vertex 0.083336 1.499999 2.624721
endloop
endfacet
facet normal -0.471400 0.000000 -0.881919
outer loop
vertex 0.083336 -1.399999 2.624721
vertex 0.083336 -1.499999 2.624721
vertex 0.057403 -1.499999 2.638582
endloop
endfacet
facet normal -0.471384 0.000002 -0.881928
outer loop
vertex 0.057403 -1.499999 2.638582
vertex 0.057403 -1.399999 2.638582
vertex 0.083336 -1.399999 2.624721
endloop
endfacet
facet normal 0.995185 -0.000000 0.098019
outer loop
vertex -0.150000 1.500000 2.500000
vertex -0.150000 1.399999 2.500000
vertex -0.147118 1.399999 2.470737
endloop
endfacet
facet normal 0.995185 0.000000 0.098018
outer loop
vertex -0.147118 1.399999 2.470737
vertex -0.147118 1.500000 2.470737
vertex -0.150000 1.500000 2.500000
endloop
endfacet
facet normal 0.995185 0.000000 0.098017
outer loop
vertex -0.150000 -1.399999 2.500000
vertex -0.150000 -1.499999 2.500000
vertex -0.147118 -1.499999 2.470737
endloop
endfacet
facet normal 0.995185 -0.000000 0.098017
outer loop
vertex -0.147118 -1.499999 2.470737
vertex -0.147118 -1.399999 2.470737
vertex -0.150000 -1.399999 2.500000
endloop
endfacet
facet normal -0.956941 0.000000 -0.290284
outer loop
vertex 0.147118 1.499999 2.529263
vertex 0.147118 1.399999 2.529263
vertex 0.138582 1.399999 2.557403
endloop
endfacet
facet normal -0.956942 0.000000 -0.290279
outer loop
vertex 0.138582 1.399999 2.557403
vertex 0.138582 1.499999 2.557403
vertex 0.147118 1.499999 2.529263
endloop
endfacet
facet normal -0.956941 0.000000 -0.290284
outer loop
vertex 0.147118 -1.399999 2.529263
vertex 0.147118 -1.499999 2.529263
vertex 0.138582 -1.499999 2.557402
endloop
endfacet
facet normal -0.956941 0.000000 -0.290284
outer loop
vertex 0.138582 -1.499999 2.557402
vertex 0.138582 -1.399999 2.557402
vertex 0.147118 -1.399999 2.529263
endloop
endfacet
facet normal -0.773004 0.000001 0.634402
outer loop
vertex 0.106066 1.499999 2.393934
vertex 0.106066 1.399999 2.393934
vertex 0.124720 1.399999 2.416665
endloop
endfacet
facet normal -0.773015 0.000000 0.634388
outer loop
vertex 0.124720 1.399999 2.416665
vertex 0.124720 1.499999 2.416665
vertex 0.106066 1.499999 2.393934
endloop
endfacet
facet normal -0.773009 0.000000 0.634395
outer loop
vertex 0.106066 -1.399999 2.393934
vertex 0.106066 -1.500000 2.393934
vertex 0.124720 -1.500000 2.416665
endloop
endfacet
facet normal -0.773013 0.000000 0.634390
outer loop
vertex 0.124720 -1.500000 2.416665
vertex 0.124720 -1.399999 2.416665
vertex 0.106066 -1.399999 2.393934
endloop
endfacet
facet normal 0.881923 0.000000 -0.471394
outer loop
vertex -0.124720 1.500000 2.583336
vertex -0.124720 1.399999 2.583336
vertex -0.138582 1.399999 2.557403
endloop
endfacet
facet normal 0.881919 0.000000 -0.471401
outer loop
vertex -0.138582 1.399999 2.557403
vertex -0.138582 1.500000 2.557403
vertex -0.124720 1.500000 2.583336
endloop
endfacet
facet normal 0.881924 -0.000001 -0.471392
outer loop
vertex -0.124720 -1.399999 2.583336
vertex -0.124720 -1.499999 2.583336
vertex -0.138582 -1.499999 2.557403
endloop
endfacet
facet normal 0.881924 0.000000 -0.471392
outer loop
vertex -0.138582 -1.499999 2.557403
vertex -0.138582 -1.399999 2.557403
vertex -0.124720 -1.399999 2.583336
endloop
endfacet
facet normal -0.881924 0.000000 0.471391
outer loop
vertex 0.124720 1.499999 2.416665
vertex 0.124720 1.399999 2.416665
vertex 0.138582 1.399999 2.442598
endloop
endfacet
facet normal -0.881919 0.000000 0.471401
outer loop
vertex 0.138582 1.399999 2.442598
vertex 0.138582 1.499999 2.442598
vertex 0.124720 1.499999 2.416665
endloop
endfacet
facet normal -0.881919 0.000000 0.471401
outer loop
vertex 0.124720 -1.399999 2.416665
vertex 0.124720 -1.500000 2.416665
vertex 0.138582 -1.500000 2.442597
endloop
endfacet
facet normal -0.881921 0.000000 0.471397
outer loop
vertex 0.138582 -1.500000 2.442597
vertex 0.138582 -1.399999 2.442597
vertex 0.124720 -1.399999 2.416665
endloop
endfacet
facet normal 0.773005 0.000000 0.634400
outer loop
vertex -0.124720 1.500000 2.416665
vertex -0.124720 1.399999 2.416665
vertex -0.106066 1.399999 2.393934
endloop
endfacet
facet normal 0.773011 0.000000 0.634393
outer loop
vertex -0.106066 1.399999 2.393934
vertex -0.106066 1.500000 2.393934
vertex -0.124720 1.500000 2.416665
endloop
endfacet
facet normal 0.773014 0.000000 0.634388
outer loop
vertex -0.124720 -1.399999 2.416665
vertex -0.124720 -1.499999 2.416665
vertex -0.106066 -1.499999 2.393934
endloop
endfacet
facet normal 0.773002 -0.000001 0.634403
outer loop
vertex -0.106066 -1.499999 2.393934
vertex -0.106066 -1.399999 2.393934
vertex -0.124720 -1.399999 2.416665
endloop
endfacet
facet normal -0.773016 0.000000 -0.634387
outer loop
vertex 0.124721 1.499999 2.583335
vertex 0.124721 1.399999 2.583335
vertex 0.106066 1.399999 2.606066
endloop
endfacet
facet normal -0.773016 0.000000 -0.634387
outer loop
vertex 0.106066 1.399999 2.606066
vertex 0.106066 1.499999 2.606066
vertex 0.124721 1.499999 2.583335
endloop
endfacet
facet normal -0.773016 0.000000 -0.634386
outer loop
vertex 0.124721 -1.399999 2.583335
vertex 0.124721 -1.499999 2.583335
vertex 0.106066 -1.499999 2.606066
endloop
endfacet
facet normal -0.773005 0.000000 -0.634400
outer loop
vertex 0.106066 -1.499999 2.606066
vertex 0.106066 -1.399999 2.606066
vertex 0.124721 -1.399999 2.583335
endloop
endfacet
facet normal -0.290270 0.000002 -0.956945
outer loop
vertex 0.057403 1.499999 2.638582
vertex 0.057403 1.399999 2.638582
vertex 0.029264 1.399999 2.647118
endloop
endfacet
facet normal -0.290315 0.000002 -0.956931
outer loop
vertex 0.029264 1.399999 2.647118
vertex 0.029264 1.499999 2.647118
vertex 0.057403 1.499999 2.638582
endloop
endfacet
facet normal -0.290288 0.000002 -0.956939
outer loop
vertex 0.057403 -1.399999 2.638582
vertex 0.057403 -1.499999 2.638582
vertex 0.029264 -1.499999 2.647118
endloop
endfacet
facet normal -0.290288 0.000000 -0.956940
outer loop
vertex 0.029264 -1.499999 2.647118
vertex 0.029264 -1.399999 2.647118
vertex 0.057403 -1.399999 2.638582
endloop
endfacet
facet normal 0.000000 1.000000 0.000001
outer loop
vertex 0.500000 1.499999 3.000000
vertex 0.150000 1.499999 2.500000
vertex 0.147118 1.499999 2.529263
endloop
endfacet
facet normal 0.000000 1.000000 0.000003
outer loop
vertex 0.500000 1.499999 3.000000
vertex 0.147118 1.499999 2.529263
vertex 0.138582 1.499999 2.557403
endloop
endfacet
facet normal 0.000000 1.000000 0.000000
outer loop
vertex -0.147118 1.500000 2.529264
vertex -0.150000 1.500000 2.500000
vertex -0.500000 1.500000 3.000000
endloop
endfacet
facet normal 0.000000 1.000000 0.000000
outer loop
vertex -0.138582 1.500000 2.557403
vertex -0.147118 1.500000 2.529264
vertex -0.500000 1.500000 3.000000
endloop
endfacet
facet normal 0.000000 1.000000 0.000001
outer loop
vertex 0.500000 1.499999 3.000000
vertex 0.138582 1.499999 2.557403
vertex 0.124721 1.499999 2.583335
endloop
endfacet
facet normal 0.000000 1.000000 -0.000010
outer loop
vertex 0.500000 1.499999 3.000000
vertex 0.124721 1.499999 2.583335
vertex 0.106066 1.499999 2.606066
endloop
endfacet
facet normal 0.000000 1.000000 0.000000
outer loop
vertex -0.124720 1.500000 2.583336
vertex -0.138582 1.500000 2.557403
vertex -0.500000 1.500000 3.000000
endloop
endfacet
facet normal 0.000000 1.000000 0.000000
outer loop
vertex -0.106066 1.500000 2.606066
vertex -0.124720 1.500000 2.583336
vertex -0.500000 1.500000 3.000000
endloop
endfacet
facet normal 0.000000 1.000000 0.000001
outer loop
vertex 0.500000 1.499999 3.000000
vertex 0.106066 1.499999 2.606066
vertex 0.083336 1.499999 2.624721
endloop
endfacet
facet normal 0.000000 1.000000 0.000005
outer loop
vertex 0.500000 1.499999 3.000000
vertex 0.083336 1.499999 2.624721
vertex 0.057403 1.499999 2.638582
endloop
endfacet
facet normal 0.000000 1.000000 0.000007
outer loop
vertex -0.083335 1.500000 2.624721
vertex -0.106066 1.500000 2.606066
vertex -0.500000 1.500000 3.000000
endloop
endfacet
facet normal 0.000000 1.000000 -0.000008
outer loop
vertex -0.057402 1.500000 2.638582
vertex -0.083335 1.500000 2.624721
vertex -0.500000 1.500000 3.000000
endloop
endfacet
facet normal 0.000001 1.000000 -0.000001
outer loop
vertex -0.500000 1.500000 3.000000
vertex 0.500000 1.499999 3.000000
vertex 0.057403 1.499999 2.638582
endloop
endfacet
facet normal 0.000007 1.000000 -0.000022
outer loop
vertex -0.500000 1.500000 3.000000
vertex 0.057403 1.499999 2.638582
vertex 0.029264 1.499999 2.647118
endloop
endfacet
facet normal 0.000000 1.000000 0.000009
outer loop
vertex -0.029263 1.500000 2.647118
vertex -0.057402 1.500000 2.638582
vertex -0.500000 1.500000 3.000000
endloop
endfacet
facet normal -0.000000 1.000000 0.000004
outer loop
vertex -0.500000 1.500000 3.000000
vertex 0.029264 1.499999 2.647118
vertex 0.000000 1.499999 2.650000
endloop
endfacet
facet normal 0.000007 1.000000 0.000020
outer loop
vertex 0.000000 1.499999 2.650000
vertex -0.029263 1.500000 2.647118
vertex -0.500000 1.500000 3.000000
endloop
endfacet
facet normal 0.881923 0.000000 0.471394
outer loop
vertex -0.138582 1.500000 2.442598
vertex -0.138582 1.399999 2.442598
vertex -0.124720 1.399999 2.416665
endloop
endfacet
facet normal 0.881924 0.000000 0.471392
outer loop
vertex -0.124720 1.399999 2.416665
vertex -0.124720 1.500000 2.416665
vertex -0.138582 1.500000 2.442598
endloop
endfacet
facet normal 0.881919 0.000000 0.471402
outer loop
vertex -0.138582 -1.399999 2.442597
vertex -0.138582 -1.499999 2.442597
vertex -0.124720 -1.499999 2.416665
endloop
endfacet
facet normal 0.881919 0.000000 0.471401
outer loop
vertex -0.124720 -1.499999 2.416665
vertex -0.124720 -1.399999 2.416665
vertex -0.138582 -1.399999 2.442597
endloop
endfacet
facet normal 0.773006 0.000000 -0.634399
outer loop
vertex -0.106066 1.500000 2.606066
vertex -0.106066 1.399999 2.606066
vertex -0.124720 1.399999 2.583336
endloop
endfacet
facet normal 0.773006 0.000000 -0.634398
outer loop
vertex -0.124720 1.399999 2.583336
vertex -0.124720 1.500000 2.583336
vertex -0.106066 1.500000 2.606066
endloop
endfacet
facet normal 0.773007 0.000000 -0.634398
outer loop
vertex -0.106066 -1.399999 2.606066
vertex -0.106066 -1.499999 2.606066
vertex -0.124720 -1.499999 2.583336
endloop
endfacet
facet normal 0.773007 -0.000002 -0.634398
outer loop
vertex -0.124720 -1.499999 2.583336
vertex -0.124720 -1.399999 2.583336
vertex -0.106066 -1.399999 2.606066
endloop
endfacet
facet normal 0.471399 0.000000 -0.881920
outer loop
vertex -0.057402 1.500000 2.638582
vertex -0.057402 1.399999 2.638582
vertex -0.083335 1.399999 2.624721
endloop
endfacet
facet normal 0.471400 0.000000 -0.881919
outer loop
vertex -0.083335 1.399999 2.624721
vertex -0.083335 1.500000 2.624721
vertex -0.057402 1.500000 2.638582
endloop
endfacet
facet normal 0.471401 0.000000 -0.881919
outer loop
vertex -0.057402 -1.399999 2.638582
vertex -0.057402 -1.499999 2.638582
vertex -0.083335 -1.499999 2.624721
endloop
endfacet
facet normal 0.471401 0.000000 -0.881919
outer loop
vertex -0.083335 -1.499999 2.624721
vertex -0.083335 -1.399999 2.624721
vertex -0.057402 -1.399999 2.638582
endloop
endfacet
facet normal -0.995185 0.000000 0.098017
outer loop
vertex 0.147118 1.499999 2.470737
vertex 0.147118 1.399999 2.470737
vertex 0.150000 1.399999 2.500000
endloop
endfacet
facet normal -0.995185 0.000000 0.098017
outer loop
vertex 0.150000 1.399999 2.500000
vertex 0.150000 1.499999 2.500000
vertex 0.147118 1.499999 2.470737
endloop
endfacet
facet normal -0.995185 0.000000 0.098017
outer loop
vertex 0.147118 -1.399999 2.470737
vertex 0.147118 -1.499999 2.470737
vertex 0.150000 -1.499999 2.500000
endloop
endfacet
facet normal -0.995185 0.000000 0.098017
outer loop
vertex 0.150000 -1.499999 2.500000
vertex 0.150000 -1.399999 2.500000
vertex 0.147118 -1.399999 2.470737
endloop
endfacet
facet normal -0.471401 0.000000 0.881919
outer loop
vertex 0.057403 1.499999 2.361418
vertex 0.057403 1.399999 2.361418
vertex 0.083336 1.399999 2.375280
endloop
endfacet
facet normal -0.471393 0.000000 0.881923
outer loop
vertex 0.083336 1.399999 2.375280
vertex 0.083336 1.499999 2.375280
vertex 0.057403 1.499999 2.361418
endloop
endfacet
facet normal -0.471391 -0.000002 0.881924
outer loop
vertex 0.057403 -1.399999 2.361418
vertex 0.057403 -1.500000 2.361418
vertex 0.083336 -1.500000 2.375279
endloop
endfacet
facet normal -0.471383 0.000000 0.881928
outer loop
vertex 0.083336 -1.500000 2.375279
vertex 0.083336 -1.399999 2.375279
vertex 0.057403 -1.399999 2.361418
endloop
endfacet
facet normal 0.098006 0.000000 -0.995186
outer loop
vertex 0.000000 1.499999 2.650000
vertex 0.000000 1.399999 2.650000
vertex -0.029263 1.399999 2.647118
endloop
endfacet
facet normal 0.098009 0.000000 -0.995185
outer loop
vertex -0.029263 1.399999 2.647118
vertex -0.029263 1.500000 2.647118
vertex 0.000000 1.499999 2.650000
endloop
endfacet
facet normal 0.098022 0.000000 -0.995184
outer loop
vertex 0.000000 -1.399999 2.650000
vertex 0.000000 -1.499999 2.650000
vertex -0.029263 -1.499999 2.647118
endloop
endfacet
facet normal 0.098026 0.000000 -0.995184
outer loop
vertex -0.029263 -1.499999 2.647118
vertex -0.029263 -1.399999 2.647118
vertex 0.000000 -1.399999 2.650000
endloop
endfacet
facet normal 0.290287 0.000000 0.956940
outer loop
vertex -0.057402 1.500000 2.361418
vertex -0.057402 1.399999 2.361418
vertex -0.029264 1.399999 2.352882
endloop
endfacet
facet normal 0.290282 0.000000 0.956941
outer loop
vertex -0.029264 1.399999 2.352882
vertex -0.029264 1.499999 2.352882
vertex -0.057402 1.500000 2.361418
endloop
endfacet
facet normal 0.290288 0.000000 0.956939
outer loop
vertex -0.057402 -1.399999 2.361418
vertex -0.057402 -1.499999 2.361418
vertex -0.029264 -1.499999 2.352882
endloop
endfacet
facet normal 0.290288 0.000000 0.956939
outer loop
vertex -0.029264 -1.499999 2.352882
vertex -0.029264 -1.399999 2.352882
vertex -0.057402 -1.399999 2.361418
endloop
endfacet
facet normal 0.956941 0.000000 -0.290282
outer loop
vertex -0.138582 1.500000 2.557403
vertex -0.138582 1.399999 2.557403
vertex -0.147118 1.399999 2.529264
endloop
endfacet
facet normal 0.956941 0.000000 -0.290282
outer loop
vertex -0.147118 1.399999 2.529264
vertex -0.147118 1.500000 2.529264
vertex -0.138582 1.500000 2.557403
endloop
endfacet
facet normal 0.956942 0.000000 -0.290281
outer loop
vertex -0.138582 -1.399999 2.557403
vertex -0.138582 -1.499999 2.557403
vertex -0.147118 -1.499999 2.529264
endloop
endfacet
facet normal 0.956940 -0.000001 -0.290286
outer loop
vertex -0.147118 -1.499999 2.529264
vertex -0.147118 -1.399999 2.529263
vertex -0.138582 -1.399999 2.557403
endloop
endfacet
facet normal -0.881920 0.000000 -0.471400
outer loop
vertex 0.138582 1.499999 2.557403
vertex 0.138582 1.399999 2.557403
vertex 0.124721 1.399999 2.583335
endloop
endfacet
facet normal -0.881920 0.000000 -0.471400
outer loop
vertex 0.124721 1.399999 2.583335
vertex 0.124721 1.499999 2.583335
vertex 0.138582 1.499999 2.557403
endloop
endfacet
facet normal -0.881920 0.000000 -0.471399
outer loop
vertex 0.138582 -1.399999 2.557402
vertex 0.138582 -1.499999 2.557402
vertex 0.124721 -1.499999 2.583335
endloop
endfacet
facet normal -0.881924 0.000000 -0.471391
outer loop
vertex 0.124721 -1.499999 2.583335
vertex 0.124721 -1.399999 2.583335
vertex 0.138582 -1.399999 2.557402
endloop
endfacet
facet normal -0.956939 0.000000 0.290289
outer loop
vertex 0.138582 1.499999 2.442598
vertex 0.138582 1.399999 2.442598
vertex 0.147118 1.399999 2.470737
endloop
endfacet
facet normal -0.956941 0.000000 0.290283
outer loop
vertex 0.147118 1.399999 2.470737
vertex 0.147118 1.499999 2.470737
vertex 0.138582 1.499999 2.442598
endloop
endfacet
facet normal -0.956940 0.000000 0.290285
outer loop
vertex 0.138582 -1.399999 2.442597
vertex 0.138582 -1.500000 2.442597
vertex 0.147118 -1.499999 2.470737
endloop
endfacet
facet normal -0.956941 0.000000 0.290284
outer loop
vertex 0.147118 -1.499999 2.470737
vertex 0.147118 -1.399999 2.470737
vertex 0.138582 -1.399999 2.442597
endloop
endfacet
facet normal 0.956940 0.000000 0.290287
outer loop
vertex -0.147118 1.500000 2.470737
vertex -0.147118 1.399999 2.470737
vertex -0.138582 1.399999 2.442598
endloop
endfacet
facet normal 0.956941 0.000000 0.290284
outer loop
vertex -0.138582 1.399999 2.442598
vertex -0.138582 1.500000 2.442598
vertex -0.147118 1.500000 2.470737
endloop
endfacet
facet normal 0.956941 0.000000 0.290282
outer loop
vertex -0.147118 -1.399999 2.470737
vertex -0.147118 -1.499999 2.470737
vertex -0.138582 -1.499999 2.442597
endloop
endfacet
facet normal 0.956941 0.000000 0.290284
outer loop
vertex -0.138582 -1.499999 2.442597
vertex -0.138582 -1.399999 2.442597
vertex -0.147118 -1.399999 2.470737
endloop
endfacet
facet normal 0.290288 0.000000 -0.956940
outer loop
vertex -0.029263 1.500000 2.647118
vertex -0.029263 1.399999 2.647118
vertex -0.057402 1.399999 2.638582
endloop
endfacet
facet normal 0.290288 0.000000 -0.956940
outer loop
vertex -0.057402 1.399999 2.638582
vertex -0.057402 1.500000 2.638582
vertex -0.029263 1.500000 2.647118
endloop
endfacet
facet normal 0.290289 0.000000 -0.956939
outer loop
vertex -0.029263 -1.399999 2.647118
vertex -0.029263 -1.499999 2.647118
vertex -0.057402 -1.499999 2.638582
endloop
endfacet
facet normal 0.290270 0.000000 -0.956945
outer loop
vertex -0.057402 -1.499999 2.638582
vertex -0.057402 -1.399999 2.638582
vertex -0.029263 -1.399999 2.647118
endloop
endfacet
facet normal -0.634395 -0.000000 -0.773009
outer loop
vertex 0.106066 1.499999 2.606066
vertex 0.106066 1.399999 2.606066
vertex 0.083336 1.399999 2.624721
endloop
endfacet
facet normal -0.634382 -0.000000 -0.773019
outer loop
vertex 0.083336 1.399999 2.624721
vertex 0.083336 1.499999 2.624721
vertex 0.106066 1.499999 2.606066
endloop
endfacet
facet normal -0.634393 0.000000 -0.773010
outer loop
vertex 0.106066 -1.399999 2.606066
vertex 0.106066 -1.499999 2.606066
vertex 0.083336 -1.499999 2.624721
endloop
endfacet
facet normal -0.634395 0.000000 -0.773009
outer loop
vertex 0.083336 -1.499999 2.624721
vertex 0.083336 -1.399999 2.624721
vertex 0.106066 -1.399999 2.606066
endloop
endfacet
facet normal 0.000001 1.000000 0.000004
outer loop
vertex 0.499999 -1.400000 3.000000
vertex 0.150000 -1.399999 2.500000
vertex 0.147118 -1.399999 2.529263
endloop
endfacet
facet normal 0.000000 1.000000 0.000002
outer loop
vertex 0.499999 -1.400000 3.000000
vertex 0.147118 -1.399999 2.529263
vertex 0.138582 -1.399999 2.557402
endloop
endfacet
facet normal 0.000001 1.000000 0.000000
outer loop
vertex -0.147118 -1.399999 2.529263
vertex -0.150000 -1.399999 2.500000
vertex -0.500000 -1.399999 3.000000
endloop
endfacet
facet normal 0.000001 1.000000 -0.000004
outer loop
vertex -0.138582 -1.399999 2.557403
vertex -0.147118 -1.399999 2.529263
vertex -0.500000 -1.399999 3.000000
endloop
endfacet
facet normal 0.000000 1.000000 -0.000004
outer loop
vertex 0.499999 -1.400000 3.000000
vertex 0.138582 -1.399999 2.557402
vertex 0.124721 -1.399999 2.583335
endloop
endfacet
facet normal 0.000009 1.000000 -0.000004
outer loop
vertex 0.499999 -1.400000 3.000000
vertex 0.124721 -1.399999 2.583335
vertex 0.106066 -1.399999 2.606066
endloop
endfacet
facet normal 0.000001 1.000000 0.000008
outer loop
vertex -0.124720 -1.399999 2.583336
vertex -0.138582 -1.399999 2.557403
vertex -0.500000 -1.399999 3.000000
endloop
endfacet
facet normal 0.000000 1.000000 0.000000
outer loop
vertex -0.106066 -1.399999 2.606066
vertex -0.124720 -1.399999 2.583336
vertex -0.500000 -1.399999 3.000000
endloop
endfacet
facet normal 0.000001 1.000000 0.000001
outer loop
vertex 0.499999 -1.400000 3.000000
vertex 0.106066 -1.399999 2.606066
vertex 0.083336 -1.399999 2.624721
endloop
endfacet
facet normal 0.000001 1.000000 -0.000000
outer loop
vertex 0.499999 -1.400000 3.000000
vertex 0.083336 -1.399999 2.624721
vertex 0.057403 -1.399999 2.638582
endloop
endfacet
facet normal 0.000000 1.000000 0.000000
outer loop
vertex -0.083335 -1.399999 2.624721
vertex -0.106066 -1.399999 2.606066
vertex -0.500000 -1.399999 3.000000
endloop
endfacet
facet normal 0.000000 1.000000 0.000000
outer loop
vertex -0.057402 -1.399999 2.638582
vertex -0.083335 -1.399999 2.624721
vertex -0.500000 -1.399999 3.000000
endloop
endfacet
facet normal 0.000001 1.000000 -0.000000
outer loop
vertex -0.500000 -1.399999 3.000000
vertex 0.499999 -1.400000 3.000000
vertex 0.057403 -1.399999 2.638582
endloop
endfacet
facet normal -0.000001 1.000000 0.000011
outer loop
vertex -0.500000 -1.399999 3.000000
vertex 0.057403 -1.399999 2.638582
vertex 0.029264 -1.399999 2.647118
endloop
endfacet
facet normal 0.000000 1.000000 -0.000009
outer loop
vertex -0.029263 -1.399999 2.647118
vertex -0.057402 -1.399999 2.638582
vertex -0.500000 -1.399999 3.000000
endloop
endfacet
facet normal -0.000000 1.000000 0.000000
outer loop
vertex -0.500000 -1.399999 3.000000
vertex 0.029264 -1.399999 2.647118
vertex 0.000000 -1.399999 2.650000
endloop
endfacet
facet normal 0.000000 1.000000 0.000000
outer loop
vertex 0.000000 -1.399999 2.650000
vertex -0.029263 -1.399999 2.647118
vertex -0.500000 -1.399999 3.000000
endloop
endfacet
facet normal -0.000001 -1.000000 -0.000005
outer loop
vertex -0.500000 1.400000 3.000000
vertex -0.150000 1.399999 2.500000
vertex -0.147118 1.399999 2.529264
endloop
endfacet
facet normal -0.000000 -1.000000 0.000003
outer loop
vertex -0.500000 1.400000 3.000000
vertex -0.147118 1.399999 2.529264
vertex -0.138582 1.399999 2.557403
endloop
endfacet
facet normal 0.000000 -1.000000 -0.000005
outer loop
vertex 0.147118 1.399999 2.529263
vertex 0.150000 1.399999 2.500000
vertex 0.500000 1.399999 3.000000
endloop
endfacet
facet normal 0.000000 -1.000000 0.000000
outer loop
vertex 0.138582 1.399999 2.557403
vertex 0.147118 1.399999 2.529263
vertex 0.500000 1.399999 3.000000
endloop
endfacet
facet normal -0.000000 -1.000000 0.000004
outer loop
vertex -0.500000 1.400000 3.000000
vertex -0.138582 1.399999 2.557403
vertex -0.124720 1.399999 2.583336
endloop
endfacet
facet normal -0.000000 -1.000000 -0.000002
outer loop
vertex -0.500000 1.400000 3.000000
vertex -0.124720 1.399999 2.583336
vertex -0.106066 1.399999 2.606066
endloop
endfacet
facet normal 0.000000 -1.000000 0.000000
outer loop
vertex 0.124721 1.399999 2.583335
vertex 0.138582 1.399999 2.557403
vertex 0.500000 1.399999 3.000000
endloop
endfacet
facet normal 0.000000 -1.000000 0.000007
outer loop
vertex 0.106066 1.399999 2.606066
vertex 0.124721 1.399999 2.583335
vertex 0.500000 1.399999 3.000000
endloop
endfacet
facet normal -0.000000 -1.000000 -0.000002
outer loop
vertex -0.500000 1.400000 3.000000
vertex -0.106066 1.399999 2.606066
vertex -0.083335 1.399999 2.624721
endloop
endfacet
facet normal -0.000000 -1.000000 0.000002
outer loop
vertex -0.500000 1.400000 3.000000
vertex -0.083335 1.399999 2.624721
vertex -0.057402 1.399999 2.638582
endloop
endfacet
facet normal 0.000000 -1.000000 0.000000
outer loop
vertex 0.083336 1.399999 2.624721
vertex 0.106066 1.399999 2.606066
vertex 0.500000 1.399999 3.000000
endloop
endfacet
facet normal 0.000000 -1.000000 0.000000
outer loop
vertex 0.057403 1.399999 2.638582
vertex 0.083336 1.399999 2.624721
vertex 0.500000 1.399999 3.000000
endloop
endfacet
facet normal -0.000000 -1.000000 0.000000
outer loop
vertex 0.500000 1.399999 3.000000
vertex -0.500000 1.400000 3.000000
vertex -0.057402 1.399999 2.638582
endloop
endfacet
facet normal 0.000000 -1.000000 -0.000001
outer loop
vertex 0.500000 1.399999 3.000000
vertex -0.057402 1.399999 2.638582
vertex -0.029263 1.399999 2.647118
endloop
endfacet
facet normal 0.000000 -1.000000 0.000000
outer loop
vertex 0.029264 1.399999 2.647118
vertex 0.057403 1.399999 2.638582
vertex 0.500000 1.399999 3.000000
endloop
endfacet
facet normal 0.000000 -1.000000 0.000009
outer loop
vertex 0.500000 1.399999 3.000000
vertex -0.029263 1.399999 2.647118
vertex 0.000000 1.399999 2.650000
endloop
endfacet
facet normal 0.000000 -1.000000 0.000000
outer loop
vertex 0.000000 1.399999 2.650000
vertex 0.029264 1.399999 2.647118
vertex 0.500000 1.399999 3.000000
endloop
endfacet
facet normal 0.634392 0.000000 -0.773011
outer loop
vertex -0.083335 1.500000 2.624721
vertex -0.083335 1.399999 2.624721
vertex -0.106066 1.399999 2.606066
endloop
endfacet
facet normal 0.634393 0.000000 -0.773010
outer loop
vertex -0.106066 1.399999 2.606066
vertex -0.106066 1.500000 2.606066
vertex -0.083335 1.500000 2.624721
endloop
endfacet
facet normal 0.634382 0.000000 -0.773019
outer loop
vertex -0.083335 -1.399999 2.624721
vertex -0.083335 -1.499999 2.624721
vertex -0.106066 -1.499999 2.606066
endloop
endfacet
facet normal 0.634395 0.000000 -0.773009
outer loop
vertex -0.106066 -1.499999 2.606066
vertex -0.106066 -1.399999 2.606066
vertex -0.083335 -1.399999 2.624721
endloop
endfacet
facet normal -0.000001 -1.000000 -0.000004
outer loop
vertex -0.500000 -1.499998 3.000000
vertex -0.150000 -1.499999 2.500000
vertex -0.147118 -1.499999 2.529264
endloop
endfacet
facet normal -0.000001 -1.000000 0.000007
outer loop
vertex -0.500000 -1.499998 3.000000
vertex -0.147118 -1.499999 2.529264
vertex -0.138582 -1.499999 2.557403
endloop
endfacet
facet normal -0.000002 -1.000000 0.000000
outer loop
vertex 0.147118 -1.499999 2.529263
vertex 0.150000 -1.499999 2.500000
vertex 0.499999 -1.500000 3.000000
endloop
endfacet
facet normal -0.000002 -1.000000 -0.000009
outer loop
vertex 0.138582 -1.499999 2.557402
vertex 0.147118 -1.499999 2.529263
vertex 0.499999 -1.500000 3.000000
endloop
endfacet
facet normal -0.000001 -1.000000 -0.000006
outer loop
vertex -0.500000 -1.499998 3.000000
vertex -0.138582 -1.499999 2.557403
vertex -0.124720 -1.499999 2.583336
endloop
endfacet
facet normal -0.000001 -1.000000 0.000001
outer loop
vertex -0.500000 -1.499998 3.000000
vertex -0.124720 -1.499999 2.583336
vertex -0.106066 -1.499999 2.606066
endloop
endfacet
facet normal -0.000001 -1.000000 0.000008
outer loop
vertex 0.124721 -1.499999 2.583335
vertex 0.138582 -1.499999 2.557402
vertex 0.499999 -1.500000 3.000000
endloop
endfacet
facet normal -0.000001 -1.000000 0.000000
outer loop
vertex 0.106066 -1.499999 2.606066
vertex 0.124721 -1.499999 2.583335
vertex 0.499999 -1.500000 3.000000
endloop
endfacet
facet normal -0.000001 -1.000000 0.000004
outer loop
vertex -0.500000 -1.499998 3.000000
vertex -0.106066 -1.499999 2.606066
vertex -0.083335 -1.499999 2.624721
endloop
endfacet
facet normal -0.000001 -1.000000 0.000000
outer loop
vertex -0.500000 -1.499998 3.000000
vertex -0.083335 -1.499999 2.624721
vertex -0.057402 -1.499999 2.638582
endloop
endfacet
facet normal -0.000001 -1.000000 0.000000
outer loop
vertex 0.083336 -1.499999 2.624721
vertex 0.106066 -1.499999 2.606066
vertex 0.499999 -1.500000 3.000000
endloop
endfacet
facet normal -0.000001 -1.000000 0.000000
outer loop
vertex 0.057403 -1.499999 2.638582
vertex 0.083336 -1.499999 2.624721
vertex 0.499999 -1.500000 3.000000
endloop
endfacet
facet normal -0.000002 -1.000000 0.000000
outer loop
vertex 0.499999 -1.500000 3.000000
vertex -0.500000 -1.499998 3.000000
vertex -0.057402 -1.499999 2.638582
endloop
endfacet
facet normal 0.000002 -1.000000 -0.000018
outer loop
vertex 0.499999 -1.500000 3.000000
vertex -0.057402 -1.499999 2.638582
vertex -0.029263 -1.499999 2.647118
endloop
endfacet
facet normal -0.000001 -1.000000 0.000000
outer loop
vertex 0.029264 -1.499999 2.647118
vertex 0.057403 -1.499999 2.638582
vertex 0.499999 -1.500000 3.000000
endloop
endfacet
facet normal -0.000009 -1.000000 0.000004
outer loop
vertex 0.499999 -1.500000 3.000000
vertex -0.029263 -1.499999 2.647118
vertex 0.000000 -1.499999 2.650000
endloop
endfacet
facet normal -0.000000 -1.000000 -0.000010
outer loop
vertex 0.000000 -1.499999 2.650000
vertex 0.029264 -1.499999 2.647118
vertex 0.499999 -1.500000 3.000000
endloop
endfacet
endsolid Exported from Blender-2.79 (sub 0)
